<?xml version="1.0" encoding="UTF-8"?>
<svg id="Layer_1" xmlns="http://www.w3.org/2000/svg" version="1.1" viewBox="0 0 948.1 947.9">
  <!-- Generator: Adobe Illustrator 29.2.1, SVG Export Plug-In . SVG Version: 2.1.0 Build 116)  -->
  <defs>
    <style>
      .st0 {
        fill: #003891;
      }

      .st1 {
        fill: #e3b688;
      }

      .st2 {
        fill: #387ee0;
      }

      .st3 {
        fill: #444545;
      }
    </style>
  </defs>
  <g id="Layer_4">
    <path class="st2" d="M650.5,420.1c-.8-5.4-1.8-10.8-2.9-16.2.9-1.5,1.6-3.2,1.9-4.2,2-5.6,2.1-11.2,1.7-17-2-27.7-12.3-55.2-30.1-76.7-9-16.2-21.1-30.5-36.2-42-2.7-2.1-5.4,0-7.2,2.5-5.8-5.8-12.2-11.1-19-15.7-1.9-1.3-3.6-.9-5.1.3-3.4-3.4-7-6.8-10.7-9.9-3.2-2.7-6.6,1.3-8.2,4-2.1-1.4-4.2-2.6-6.4-3.8-1.2-.6-2.3-.8-3.3-.5-1-.9-1.9-1.8-2.9-2.7-3.5-3.2-7.5,2.5-8.7,5-1.1,2.3-1.8,4.7-2.1,7.1-3.1.5-5.3,4.9-6.7,9.6-2.9-2-6.2-.1-8.2,3.1-2.2,3.6-3.3,8-3.5,12.5-4.5,6.9-3.9,17.7-2.2,25.1.4,1.8.8,3.6,1.3,5.4-5.9,5.3-11.2,11-16.1,17.1-4.9,4.4-10,8.6-15.1,12.8-9.9,6.5-19.3,13.8-28.7,21.1-3.2,2.5-5,6.4-6,10.6-1.4-.9-2.9-1.1-4.4.2-4.6,4-8.7,8.2-12.4,12.8-2.4-2.6-5.2-2.8-8.5.3-4.1,4-8,8.1-11.7,12.3-1.9-6.1-6-11.9-12-6.3-3,2.8-5.8,5.6-8.6,8.5-1.5-3.5-4.6-8-8.8-5.5-1.6.9-3.1,1.9-4.7,3-.4-2.5-1-4.9-2-7.1-.9-2-3.5-6.5-6.3-5.7-.8.2-1.6.5-2.4.7h0c-.1,0-.2,0-.3.1-1.1.4-2.2.7-3.2,1.1-6.4.1-12.7-.6-19-2.2-.2,0-.4,0-.6-.1-9.1-9.1-18.2-18.1-27.2-27.2-2.5-2.5-4.7-2.8-6.6-1.8-1.8-2.9-3.5-5.8-5.3-8.7-4.8-14.5-11.7-28.1-20.9-40.3-1-2.1-1.9-4.3-2.8-6.4-1-2.3-3.3-5.7-6.3-5.7-.7,0-1.4.2-2,.5-1.4-1-3-1.1-4.8.1-2.9,2-5.9,4-8.8,6-1-.2-2.1,0-3.2.8-5.2,3.5-10.2,7.2-15.1,11.1-.5-.2-1.1-.3-1.6-.3-3.2,0-5,3.4-6.3,5.7-.2.4-.5.8-.7,1.2-5.6,3.8-11.1,7.6-16.7,11.4-4.1,2.8-6,8.4-6.5,14-7.9,9.8-15,20.2-21.2,31.3-3.6,6.5-3.4,16.2-1.4,23.5-.2.8-.4,1.5-.6,2.3-8.2,22.9-12.3,47.2-12,71.8,0,4.3.5,11.7,3.6,16.1,0,.6,0,1.2,0,1.8.5,14.7,2.6,29.3,6.8,43.4,2.3,14.7,6.9,28.9,14,41.8,3.1,5.6,7.7,7.9,11.7,1.6,1.2-1.9,2-4,2.6-6.3,12.7,1.2,24.4-3.4,33.8-11.7,1.4-.8,2.8-1.7,4-2.6,2.6-1.9,4.2-4.8,5.2-8.1.2,0,.5.2.8.3,14.5,5.8,29,8.2,44.2,4.6,1-.1,2.1-.3,3.1-.6,1,1,2.1,1.6,3.4,1.5.2.5.5,1.1.8,1.6,19.9,35.9,43.1,69.7,70,100.6.3.6.5,1.3.8,1.9.8,1.7,3.5,6.3,6.3,5.7,0,0,.2,0,.2,0,2.5,1.3,5,.2,7-2.5,3.3-1.7,6-3.9,8.3-6.6,1.8,2.6,4.3,3.9,7.8,2.7,12.2-4.2,24.3-8.5,36.5-12.7,1.7,4.5,4.5,8.6,9.1,6.2,16.7-8.5,32.8-18.1,48.2-28.8.7.3,1.4.4,2.1.3.2.5.4,1,.6,1.5,1.3,2.7,4.9,8,8.6,5.1,2.5-1.9,4.2-4.2,5.6-6.7,1.8,2.3,4.4,3.5,7.9,2.3,1.4-.5,2.6-1.2,3.9-2.2,1.7,3.2,4.4,5.8,8,3.9,1.7-.9,3-2.5,4-4.5.4.3.9.6,1.3.8.4.6.8,1.2,1.2,1.8,6.8,9.6,12.7-7.1,13.2-11.6,1.4-13,2.7-26,4.1-39,.8-7.4.8-22.2-8.5-24.7-4.4-1.2-7.9,3-10,6.3-1,1.5-1.8,3.2-2.5,4.8-2.9,0-5.1,2.4-6.2,5.4-1.1,2.9-2,5.8-2.9,8.8-1.5.9-2.8,2.5-3.6,4.5-.9,2.1-1,2.5-1.9,3.9-2-2.8-4.9-4.8-8.6-3.9-1.3.3-2.5.9-3.5,1.6-2.1-3.7-4.9-5.6-7.6-4.9,0-8.5-1.1-17-3.5-24.7-.7-2.1-2.7-8.8-6.1-9.7.7-7.8,1.1-15.6,1.4-23.5.2-5-.8-14.6-5.5-18.2,0-1.1-.1-2.2-.2-3.2,1.1-2.5,2.3-4.9,3.5-7.4,16.1-9,28.8-22.8,39.6-38,12.2-3.4,22.8-9.5,32.7-16.8,1.1,1,2.4,1.9,3.7,2.7,9,5.4,20.1,6.9,29.9,3.1,2-.8,3.7-1.8,5.3-2.9,5,4,10.8,6.6,16,4.2,3.2-1.5,5.4-4.3,6.9-7.6.6.4,1.3.8,1.9,1.2,1.5,2.4,3.2,4.8,4.8,7.1.8,1.6,1.5,3.1,2.3,4.7,1.3,2.7,3.4,5.3,5.9,5.5,1.5,1.4,3.2,2.7,5,3.5,4.5,2.1,8.2,1.4,11.1-1.1,6.5,2,9-6.4,9.8-14,2.2-5.3,2.5-12,1.7-17.3h0ZM517.7,559.8s0,0,0,.1c-.3,1.3-.3.8,0-.1Z"/>
  </g>
  <path id="dithering" class="st0" d="M515,523.6h-10v-10h10v10ZM495,513.6h-10v10h10v-10ZM475,493.6h-10v10h10v-10ZM475,513.6h-10v10h10v-10ZM475,533.6h-10v10h10v-10ZM455,493.6h-10v10h10v-10ZM455,513.6h-10v10h10v-10ZM455,533.6h-10v10h10v-10ZM435,473.6h-10v10h10v-10ZM435,513.6h-10v10h10v-10ZM415,493.6h-10v10h10v-10ZM415,513.6h-10v10h10v-10ZM415,533.6h-10v10h10v-10ZM395,473.6h-10v10h10v-10ZM395,493.6h-10v10h10v-10ZM395,513.6h-10v10h10v-10ZM395,533.6h-10v10h10v-10ZM375,473.6h-10v10h10v-10ZM375,513.6h-10v10h10v-10ZM375,533.6h-10v10h10v-10ZM355,473.6h-10v10h10v-10ZM355,493.6h-10v10h10v-10ZM355,513.6h-10v10h10v-10ZM355,533.6h-10v10h10v-10ZM335,493.6h-10v10h10v-10ZM335,513.6h-10v10h10v-10ZM335,533.6h-10v10h10v-10ZM315,453.6h-10v10h10v-10ZM315,473.6h-10v10h10v-10ZM315,513.6h-10v10h10v-10ZM315,533.6h-10v10h10v-10ZM295,473.6h-10v10h10v-10ZM295,493.6h-10v10h10v-10ZM295,513.6h-10v10h10v-10ZM295,533.6h-10v10h10v-10ZM265,523.6h10v-10h-10v10ZM515,543.6v-9.7h-10v10h10v-.3ZM505,553.8v-10h-10v10h10ZM495,543.6v-9.7h-10v10h10v-.3ZM505,573.8v-10h-10v10h10ZM495,553.8h-10v10h10v-10ZM495,593.8h10v-10h-10v10ZM495,573.8h-10v10h10v-10ZM495,603.8v10h10v-10h-10ZM485,593.8v10h10v-10h-10ZM485,623.8h10v-10h-10v10ZM485,543.8h-10v10h10v-10ZM485,563.8h-10v10h10v-10ZM475,563.8v-10h-10v10h10ZM475,583.8v10h10v-10h-10ZM475,573.8h-10v10h10v-10ZM475,613.8h10v-10h-10v10ZM465,603.8h10v-10h-10v10ZM475,633.8h10v-10h-10v10ZM535,553.8h-10v10h10v-10ZM535,583.8v-10h-10v10h10ZM515,563.8v10h10v-10h-10ZM535,603.8v-10h-10v10h10ZM515,593.8h10v-10h-10v10ZM515,613.8h10v-10h-10v10ZM515,563.8v-10h-10v10h10ZM505,583.8h10v-10h-10v10ZM505,603.8h10v-10h-10v10ZM505,623.8h10v-10h-10v10ZM465,613.8v10h10v-10h-10ZM465,543.8h-10v10h10v-10ZM455,553.8h-10v10h10v-10ZM465,593.8v-10h-10v10h10ZM455,573.8h-10v10h10v-10ZM455,603.8v10h10v-10h-10ZM445,593.8v10h10v-10h-10ZM455,633.8h10v-10h-10v10ZM445,623.8h10v-10h-10v10ZM445,643.8h10v-10h-10v10ZM435,543.8v10h10v-10h-10ZM445,563.8h-10v10h10v-10ZM445,593.8v-10h-10v10h10ZM435,583.8v-10h-10v10h10ZM435,613.8h10v-10h-10v10ZM435,593.8h-10v10h10v-10ZM435,623.8v10h10v-10h-10ZM425,613.8v10h10v-10h-10ZM425,643.8h10v-10h-10v10ZM425,543.8h-10v10h10v-10ZM425,563.8h-10v10h10v-10ZM405,553.8v10h10v-10h-10ZM425,583.8h-10v10h10v-10ZM415,573.8h-10v10h10v-10ZM415,603.8v10h10v-10h-10ZM415,593.8h-10v10h10v-10ZM415,623.8v10h10v-10h-10ZM405,613.8v10h10v-10h-10ZM405,643.8h10v-10h-10v10ZM395,543.8v10h10v-10h-10ZM385,563.8h10v-10h-10v10ZM405,583.8h-10v10h10v-10ZM385,573.8v10h10v-10h-10ZM405,603.8h-10v10h10v-10ZM395,593.8h-10v10h10v-10ZM395,633.8h10v-10h-10v10ZM395,623.8v-10h-10v10h10ZM395,653.8h10v-10h-10v10ZM385,633.8v10h10v-10h-10ZM375,553.8h-10v10h10v-10ZM375,573.8h-10v10h10v-10ZM385,613.8v-10h-10v10h10ZM375,603.8v-10h-10v10h10ZM375,623.8v10h10v-10h-10ZM375,623.8v-10h-10v10h10ZM375,653.8h10v-10h-10v10ZM365,663.8h10v-10h-10v10ZM365,643.8h10v-10h-10v10ZM355,553.8h-10v10h10v-10ZM365,583.8h-10v10h10v-10ZM345,573.8v10h10v-10h-10ZM365,603.8h-10v10h10v-10ZM355,593.8h-10v10h10v-10ZM365,623.8h-10v10h10v-10ZM345,613.8v10h10v-10h-10ZM355,643.8v10h10v-10h-10ZM345,663.8h10v-10h-10v10ZM355,633.8h-10v10h10v-10ZM335,553.8h-10v10h10v-10ZM335,583.8v-10h-10v10h10ZM345,613.8v-10h-10v10h10ZM335,603.8v-10h-10v10h10ZM335,623.8v10h10v-10h-10ZM325,613.8v10h10v-10h-10ZM335,643.8v10h10v-10h-10ZM325,573.8v-10h-10v10h10ZM315,563.8v-10h-10v10h10ZM325,583.8h-10v10h10v-10ZM305,573.8v10h10v-10h-10ZM315,603.8v10h10v-10h-10ZM305,593.8v10h10v-10h-10ZM305,543.8h-10v10h10v-10ZM295,563.8v10h10v-10h-10ZM285,553.8v10h10v-10h-10Z"/>
  <g id="Layer_3">
    <g>
      <path class="st1" d="M333.4,298.5c-.2-4-.5-8.1-.7-12.1,0-1.4,0-1.3,0,.2,0-.7,0-1.3-.1-2,0-1.6-.1-3.2-.1-4.8,0-7.1,0-14.3-1-21.4-.8-5.9-1.7-12.7-4.8-17.9-.9-4.5-2.2-8.7-5-12.4-1.8-2.3-4.5-3.2-6.7-2.1-1.1-2.6-2.8-5.1-5.1-6,0-2.3-.2-4.6-.5-6.9-.6-4.2-1.6-9.8-5.1-12.7-2.7-2.1-5.8-2.2-7.9.9-1.4,2-2.5,4.2-3.5,6.4-.6-1.2-1.4-2.4-2.2-3.3,0-.1,0-.2,0-.3,2.3-7.9,2.4-20-3.1-26.7-5.6-6.9-10.7,1.7-12.2,6.9-4.5,15.1-4.5,31.2-6.1,46.8-.5,4.6-1.1,9.1-1.7,13.7-2.7,11.5-3.5,23.4-3.6,35.1,0,5.2.9,17.7,7.6,19.2.5.1.9.1,1.3.1.5,5.1,2,10.1,5.3,12.8,5.5,4.5,10.1-2.7,11.2-7.9,0-.1,0-.2,0-.3.1,1.1.2,2.2.4,3.2.6,4.2,2.5,14.3,8.5,14.4,1,0,1.8-.2,2.6-.7.8,2,1.8,4,3,6,3.2,5.2,7.6,1.7,10-1.7,1,2.4,2.4,4.4,4.4,5.1,1,3.3,2.6,7.5,6.2,8.4,4,1,5.8-2.3,7.5-5.3,1.8-3.1,2.6-6.9,2.9-10.4.4-4.7.8-12.4-1.4-18,0-2.1-.2-4.1-.3-6.2h0Z"/>
      <path class="st1" d="M540.2,141.4c-.8-1.9-1.8-3.8-3-5.7-1.4-2.2-4.5-3.4-6.9-2-4.4,2.7-6.9,7.6-8.7,12.6-1.5-1.1-2.9-1.2-5.2-.5-6,1.8-8,12.2-9.2,17.5-.6,2.4-1.1,4.9-1.6,7.3-.8,1.2-1.5,2.6-2,4-.3-1.4-.6-2.8-1-4.2-.9-3.1-3.1-10.1-7.7-9.7-2.8.2-5,1.8-6.9,4.1-.3-1.3-.6-2.6-1-3.9-.8-2.7-5.2-13.4-10-9-2.3,2.1-4.1,3.9-5.5,6.7-.6,1.3-1.1,2.6-1.5,4,0,0-.8,2.2-1,2.5-2.1,5.3-4.2,10.6-5.8,16.1-.1.3-.2.7-.3,1-1.1-.4-2.4-.4-3.8.5-5.2,3.1-6.9,9.2-7.6,15.1-.3,1.5-.7,3.1-1,4.6,0-.3-.1-.5-.2-.8-.3-1.2-.9-2.9-1.7-4.5.2-3.1,0-6.1-.3-8.6-.3-2-1.5-7.4-3.6-11-.3-1.9-.6-3.8-.9-5.7-1.2-8-2.4-16.1-4.6-23.9-2.1-7.8-5.3-15.3-8.7-22.6-3.1-6.7-5.6-13.7-9.3-20-2.4-4.1-6.4-9.6-11-9.3-2.3-3.9-5-7.6-8.3-10.3-2.3-2-5.4.3-6.9,1.9-2.5,2.7-3.9,6.3-4.7,10.1-.9-2.1-1.9-4.1-3.3-6.1-6.8-9.8-12.5,7.4-13.2,11.6-.4,2.6-.5,5.1-.4,7.7-1.2-4.9-3.9-11.7-8.5-10.6-.9-4.7-3.5-13.2-8.1-12.1-7.4,1.8-9.3,10.5-11.4,16.8-.2.6-.3,1.1-.5,1.7-.1-.4-.3-.8-.4-1.2-.7-1.8-3.6-6.2-6.3-5.7-6.6,1.2-8.9,8-10.8,13.8-2.9,1.4-5.1,5.9-6.1,9.1-5,16.3-7.5,33.6-9.4,50.6-.7,4.7-1.1,9.4-1.3,14.1-.1,5.2,1,17.7,7.6,19.2,4.6,1,7.4-3.8,8.7-8.4.3,2.1.6,4.1,1,6.2.7,3.3,2.8,8.4,6.5,9.3,3.8.9,6-2.3,7.5-5.3.5-1,.9-1.9,1.3-2.9,1.2,4.6,3.6,10.2,7.5,9.4,3.2-.7,5.4-2.8,6.9-5.6.6,1.6,1.2,3.1,2,4.6,1.2,2.3,3.2,5.7,6.3,5.7,2.3,0,4.2-2,5.4-3.9,1.5,5.7,3.2,11.4,5.1,17,1.2,3.4,2.9,9.7,7.7,9.7,2.3,0,4.1-1.7,5.4-3.8.6,2,1.2,3.9,1.9,5.9,0,.3.1.6.2.9,0,.4.1.8.2,1.2.2,1.5.4,3.1.7,4.6.9,5.4,2,10.6,4.4,15.6,1.9,4,5.5,7.7,9.7,4.1.7-.6,1.2-1.2,1.7-1.9.2.7.4,1.4.6,2.1,1.1,3.4,2.5,8.4,6.5,9.3.5.1.9.2,1.3.2,0,.2,0,.4,0,.6-.2,3-.4,6-.6,9.1,0,.5,0,.8,0,1.1-.1,1.1-.3,2.2-.5,3.2-1.3,6.4-.4,16.7,4,22,3.6,4.4,8.4,2.2,10.5-2.3.2.2.4.5.7.7,5.6,5.5,9.7.1,11.8-5.6.1.3.2.5.3.8,1.4,3.1,3.8,6.3,7.5,5.4,3.9-.9,5.6-5.9,6.6-9.3,1.1-3.5,1.7-7.1,2-10.6,1.5,3.6,3.9,6.5,7.5,5.5,2.6-.7,4.3-3,5.5-5.7,1.2,3.9,3.3,7.5,7,7.5,2.7,0,4.5-1.9,5.8-4.4.1.1.2.2.4.3,2.5,2,5.9,2.4,7.9-1,3-5,4.4-9.8,4.9-15h0c.2-1.5.4-3.2.6-4.8.2,0,.4,0,.7,0,6.7,0,8.6-11.3,8.9-17.3,1.4,1,3,1.3,5,.3.2-.1.4-.2.6-.3.3.2.6.4.9.6,5.4,3,9.2-4.9,10.1-8.9.5-2.4,1-4.7,1.3-6.9,3.6,5.3,8.8.8,10.7-3.2.4-.8.7-1.6,1-2.4,0,0,.1,0,.2,0,1.9-.2,3.4-1.1,4.5-2.6,10.5-15.2,14-35.8,14-54,0-6.2-3.5-45.8-16.2-41.7h0Z"/>
    </g>
    <g>
      <path class="st1" d="M277,182.2c2,1.8,4.5,2,7.5-1.3,3.9-4.2,6-9.9,8.3-15.2.8.8,1.5,1.3,2.3,1.6.6,1.4,1.3,2.7,2.1,4.1,1.1,1.9,4.8,3.8,6.9,2,.2-.2.4-.4.7-.6,4.5-3.8,6.3-10,6.7-16.1,1.6-3.9,3.4-7.8,5.3-11.6,1.9-3.9,4.2-7.6,6.1-11.5,3.4-7.2,4.8-14.8,4.9-22.8.1-5.4-.8-14.2-5.4-17.8-4.2-3.4-7.6-.2-9.8,4,.4-.7-.8,1.2-1.5,2.3-1.4-.7-3-.7-4.9,0-1,.4-2,1-2.8,1.8-.5-2.7-1.2-5.2-2.2-7.3-1.2-2.5-3.1-5.7-6.3-5.7-3.2,0-5,3.3-6.3,5.7-4.2,7.4-7.4,15.1-10.4,22.9-.4.6-.7,1.2-1.1,1.7-3.2,5-6.5,10.1-9.2,15.4-6,11.6-9.2,24.7-9.8,37.7-.2,3.2,2.8,24.8,11.2,18.9,2.9-2.1,4.4-4.6,5.5-7.4.8,0,1.6-.3,2.4-.8h0ZM309.2,162.3s0,0,.1-.1c0,0,0,0-.1.1Z"/>
      <path class="st1" d="M513.3,171.3c-.6-9.6-1.4-19.1-2.9-28.6-1.6-10-3.1-20.5-8.1-29.5-1.9-3.5-4.2-7-8.6-5.1-1.1.5-2.1,1.2-2.9,2.1-1.2-2.9-2.5-5.8-4-8.6-2.2-4.3-5.4-10.5-10.4-12.1-.9-.3-1.8-.4-2.6-.5-2.2-5.3-5-12-10.6-14.3-4.4-1.8-6.8,1.4-8.7,5-1.2,2.2-2.1,4.4-2.7,6.7-1.6-1.8-3.6-3.1-6.3-3.7-1.9.2-3.4,1.1-4.5,2.6-1.4,1.7-2.6,3.5-3.7,5.5-1-.5-2-.5-3-.3-3.4-2.1-7.3,1.2-9,4.8-3.3,7.4-3.2,15.9-1.5,23.6,1.2,5.3,3.9,10,6.3,14.7.2,3.8.5,7.6.8,11.4.9,9,2.6,18.1,5.4,26.7,2.8,8.7,5.8,17.9,11.1,25.4,1.1,1.6,2.6,2.5,4.5,2.7,7.2-2,10-9.6,11-17.1,2.4,3.1,5.5,4.8,8.6.2,2.5-3.6,3.8-7.5,4.5-11.5.8,3.1,2,6.2,4,8.7,2.7,3.4,6.2,3.3,9,0,1.3-1.5,2.2-3.4,2.9-5.4,1,2.4,2.5,5.1,4.4,6.6h0c.3,4.6,3.9,17.5,10.9,13.7,7.2-3.9,6.8-17.4,6.3-24h0Z"/>
      <path class="st1" d="M349.3,383.9c.3.5.3.5,0,0h0Z"/>
      <path class="st1" d="M476.7,280.1c-2,1.8-3.8,3.8-5.2,5.9-.5-.9-1.1-1.7-1.7-2.4-2.1-2.5-3.9-3-6.9-2-3.9,1.3-6.1,6.7-7.6,10.1-.5,1.1-1,2.3-1.6,3.4-.8-1.6-1.7-3.2-2.8-4.5-5.4-6.6-10.5-1.8-14.2,4.5-1.1-4.9-3.2-9.4-7-12.6-2.3-2-5.4.3-6.9,1.9-.5.6-1,1.2-1.5,1.9-1.2-2.7-2.8-5.1-4.8-7-5.9-5.5-11.5,1.2-14,6.7-1.1,2.4-4,10-3.8,13.2-2.3-5.2-5.4-10.7-9.8-13.2-7.9-4.3-12.5,5.1-14.6,11.6-.7-1.1-1.3-2.1-2-3.2-3.2-5.3-7.2-10.9-14.1-11-2.8,0-5.5,3.4-6.3,5.7-1.1,3.1-2,6.2-2.6,9.4-1.8-2.1-3.8-4.1-5.9-5.7-7.7-5.9-13.2,1.1-15.3,8.6-.5,1.7-.8,3.5-1.1,5.2-2-2.3-3.9-4.7-6.5-6.1-5.2-2.9-8.4,3.3-9.9,8.6-1-1-2.1-1.9-3.1-2.9-3.9-3.5-7.8-7.7-12.6-10,0,0,0-.1,0-.2-1.1-2.3-3.2-5.7-6.3-5.7-3,0-5.3,3.4-6.3,5.7-3.5,8-4,19.5-.1,27.6,5.7,11.9,11.4,23.7,19.2,34.5,5.9,8.2,13.3,19.8,23.4,23.1,3.6,1.2,6.1-.2,7.8-2.8.8.8,1.5,1.5,2.3,2.3,1.2,1.9,2.7,3.6,4.6,4.6,3.8,2,6.4-.7,8.2-4.1.2.4.5.8.7,1.1.5.8.9,1.4,1.1,1.7-.2-.3-.4-.8-.8-1.4.4.8.8,1.5,1.3,2.2,2.8,4.9,5.4,10.2,11.1,11.8,4.4,1.2,7.2-7.6,8-11,.9,1.9,1.9,3.7,3.3,5.4,2.7,3.5,6.3,3.3,9,0,1.8-2.1,3-5.1,3.7-8.2,1.7,3.6,4,6.8,7.9,7.7,4.5,1.1,7.2-7.7,8-11.2,2,3.3,4.9,5.7,8.7,2.5,3.5-3,4.9-8,5.3-13,1.7,2.4,4,3.9,7,2.3.9-.5,1.7-1.2,2.4-2.1.2.3.5.6.7.9,4.1,4.8,8.5,1.8,10.8-3,1.7-3.5,2.8-7.2,3.6-11,.7,1.9,1.5,3.7,2.6,5.5,2.5,4.1,6.4,2.6,9,0,4.4-4.2,5.6-11.5,6.6-17.2,0-.2.1-.6.2-1,0-.3.1-.6.2-.7.1-.4.2-.9.4-1.3.1.2.2.5.3.7,2.2,4.5,6.9,8.2,10.8,3.1,1.3-1.7,2.3-3.4,3.1-5.4,0,0,.7-1.9,1.1-3,2.4,2.9,5.5,4.4,8.4,0,3-4.6,4.6-9.2,5.4-14.6.2-1.3.3-2.5.5-3.7,0-.9.1-1.7.1-2.3,0,0,0-.3.1-1,1.6-9.9,1.1-20.5-2.7-29.8-1-2.5-5.2-8.1-8.6-5.1h0ZM457.8,303.8c-.2.8-.1,1.9-.2,2.6,0,0,0,0,0,.1,0-1.1,0-2,.2-2.7h0ZM488.1,314.6c0,0,0,.1,0,.2.2-2.5.2-2.5,0-.2Z"/>
    </g>
    <g>
      <path class="st1" d="M467.2,223.6c-1.2-4.8-2.4-9.6-3.5-14.5-.5-2.4-1-4.9-1.5-7.3-.2-.9-.4-1.8-.5-2.7,0-.2-.1-.8-.3-1.8-.8-4.4-3.6-17.7-10.9-13.7-.8.4-1.5,1-2.1,1.7-.2-.4-.5-.7-.8-1.1-2.1-2.8-4.5-3.1-6.7-1.8-2.5-2.7-6-4.2-8.6,0-1.2,1.9-2.2,3.9-2.9,6-1,.4-2,1.1-2.8,2.1-2.1,2.5-3.1,5.6-3.8,8.9-1,.3-1.9,1-2.8,2.3-.4.6-.8,1.2-1.2,1.8-2.2-1.7-4.8-2.1-7.9-.3,0,0,0,0,0,0-1.9-2.3-4.5-3.4-7.6-.8-6,5.1-5.7,16-5.3,23,.4,6.1,1.3,12.2,2.6,18.2,0,10.7,1.5,21.5,4.6,31.7,1.2,4,4.4,12.1,10,9,1.6-.8,2.8-2.2,3.7-3.9,1.2.9,2.6,1.3,4.4.8,2.6-.8,4.4-3,5.6-5.8,1.6,1.6,3.6,2.2,6,.9,6.3-3.4,6.8-14.3,6.5-21.4.8-.2,1.6-.6,2.4-1.3.9-.8,1.7-1.7,2.3-2.8,1.8,1.3,3.9,1.4,6.1-.9,1.1.9,2.4,1.4,3.9,1.1,2.2,2.1,5,2.6,7.8-.8,5.5-6.6,5.4-18.9,3.3-26.7h0Z"/>
      <path class="st1" d="M313.6,303.5c-.1-5.5-1.7-15.2-6.8-17.2-1.9-4.5-3.8-9-5.8-13.4-2.7-6-8-7.5-11.7-1.6-.5.9-1,1.8-1.4,2.7-.9-.1-1.9-.1-2.9.1-2.1.5-3.7,1.7-5,3.3-2.1-2.7-4.3-5.4-6.5-8.1-4.9-5.8-9.7-.2-11.5,5-.1.3-.2.5-.3.8-3.1,6.8-3.2,16.9-1.1,23.1,3.3,9.6,7.3,18.4,13.2,26.7,2.5,3.6,5.8,2.9,8.2.6,1.6,2.1,3.1,4.3,4.6,6.4,4.1,5.9,9,.6,11.1-3.8,2.3,3.5,4.6,7,6.7,10.6,4.1,6.9,10-.8,11.5-5,3-8.3,2.4-17.4-.6-25.6-.6-1.6-1.2-3.1-1.8-4.7h0Z"/>
      <path class="st1" d="M337.8,84.7c-.4.7-.8,1.4-1.1,2.1-.6-1.1-1.4-2.2-2.2-3.3-2.4-2.9-6.7-3.9-9,0-11.2,18.6-19.7,38.4-24.7,59.5-1.9,8.1-2.6,19.8,3.1,26.7,3.1,3.8,6.3,2.8,8.6.1,2.6,2.1,5.4,1.4,7.7-1.4.7,6.2,2.6,14.2,8.5,14.2,7.5,0,9.2-14.7,9-19.5,0-1.4,0-2.8,0-4.2h0c0-.3,0-.5,0-.7.2-1.1.3-2.2.5-3.3,0-.3,0-.5.1-.7,0,0,0-.2.1-.4,1.5-5.2,2.9-10.4,4.6-15.6,3.8-11.4,7.4-22.6,9.6-34.4,1.2-6.5.4-16.6-4-22-4-4.9-8.4-1.5-10.8,3h0Z"/>
    </g>
    <g>
      <path class="st1" d="M485.7,264.3c.1-.7.2-1.5.4-2.2.7-.4,1.4-1,2.1-1.8,5.8-6.9,4.9-18.6,3.3-26.7-1.5-7.6-3-15.2-4.5-22.7-.8-3.9-4.3-11.1-9.2-9.4-.9-5.8-3-12.3-8.2-12.4-4.7,0-7,5.5-8.1,10.9-2.2,1.9-3.7,5.4-4.6,8.1-2.8,8.9-4.1,18.3-4.2,27.7-.6-.7-1.3-1.3-2.1-1.7-5.4-3-9.2,4.9-10.1,8.9-.9,4-1.7,8-2.2,12-.9-1.1-2-1.9-3.3-2.2-3.8-.9-6,2.2-7.5,5.3-7.1,14.2-6.8,31.9-.9,46.5,2.2,5.4,6.6,7.3,10.8,3.1,1.1-1.1,2.2-2.3,3.2-3.5,1.4,3.6,4.2,7.5,8,6.4,2-.6,3.5-2.2,4.7-4.2,2,.5,4.2-.1,6.6-2.5,2.4-2.3,4.2-5.3,5.8-8.5,1.8,2.8,4.4,4.8,7.4,2.9,9.9-6.4,11-23.3,12.9-33.9h0Z"/>
      <path class="st1" d="M404.4,218.2c-.4-3-1.3-8-3.6-11.2-.8-5.1-2.6-10.5-7-11.4-6.7-1.5-9.4,9.3-9.9,13.9-.5,5.5-1.1,10.9-1.6,16.4-2.2-1.6-4.8-2-7.7-.3-5.5,3.2-6.9,11.2-8.1,16.9-6.8,4.1-6.5,17.4-6,23.8.3,3.2.5,6.4.8,9.6.4,4.3,2.4,12.9,7.4,14,5,1.1,8-5.2,8.9-9.3.6-2.8,1.3-5.6,1.9-8.4l1.9,4.6c1.4,3.4,4.7,7.2,8.6,5.1.2-.1.5-.3.7-.5,1.3,2.9,3.3,5.1,6.3,5.1,7.8,0,8.8-14.7,9-19.5.2-4.3.4-8.5.4-12.8.2-1.6.4-3.3.7-4.9.7-4.6.8-12.6-1.5-18.3-.3-4.2-.7-8.5-1.2-12.7h0Z"/>
      <path class="st1" d="M726.5,521.4c-16-16.6-32.7-32.4-50-47.6-4.9-6.1-10.9-11.3-17.7-15-2.6-1.4-4.6-.6-6.3,1.1-17-9.9-34.4-19.3-52-28.1-3-1.5-5.5-.2-7.3,2.6-10.6-2.3-21.5-3.4-32.5-3-3.6.1-5.7,3.4-7,7.1-1.7.5-3.3,1.2-5,1.9-.2-.7-.4-1.4-.6-2.1-1.9-5.5-6.2-10.5-11.5-5.1-.5.5-1,1-1.4,1.5-1.9-1.2-4.3-1.1-7,1.5-3.5,3.4-6.7,7-9.7,10.9-1.5-1.5-3.5-2.3-5.9-1.1-1.6.8-3.1,1.7-4.6,2.7-2.1-3.8-5.2-5.6-9.5-1.1-14.1,14.8-22.2,35.4-23.6,55.7-.4,5.3-.5,10.9,1.1,16-.6,6.5.1,15,4.2,20,4,4.8,8.5,1.7,10.8-3,.5-1.1,1-2.2,1.5-3.3,0,0,0,0,0,0-.7,1.6-1.3,3.3-2,4.9-2.5,6.3-3.5,14-2.2,20.9-1.6,7.4-1.4,16.9,2.6,23.2,3.7,5.8,8.8,4.8,11.7-1.5,3.6-7.7,7.2-15.3,11.1-22.7,2.1,4.8,6.1,8.5,10.9,3.5,4.1-4.3,7.3-9.3,10.1-14.5.5,1.4,1.1,2.6,1.8,3.8,1.9,3,4.5,4.2,6.8,3.7,0,0,0,.1,0,.2-1.9,8.1-2.6,19.8,3.1,26.7.5.6,1,1,1.4,1.4.2,5.9,1.8,15.9,7.6,17.2,6.7,1.5,9.4-9.3,9.8-13.9,1.1-11.1,2.5-22.1,4.2-33.2.7.7,1.6,1.1,2.5,1.3,3.8.9,6.3-2.5,7.8-6,1.2,3.3,2.2,6.5,3.3,10.7.9,3.3,1.7,6.6,2.5,9.9,0,.4.7,3.3.7,3.5.3,1.5.5,3,.7,4.6.7,4.4,2.9,16,9.7,14,1-.3,1.8-.8,2.5-1.4,1,.2,2,0,3.2-.6,5.5-3,6.9-13.3,6.6-18.8-.2-5.7-.4-11.5-.5-17.2.3.6.6,1.2.8,1.8,3.7,7.9,4.6,11.6,7.2,21,1.4,4.7,5.3,13,11.1,8,5.9-5,5.9-16.1,5.3-23,0-.5,0-1-.1-1.4,1.2-.4,2.2-1.2,3.1-2.2,2.7-3.2,3.8-7.7,4.2-12.1,3.6,4.7,7.2,9.4,10.7,14.1,3.2,4.2,6.4,2.8,8.7-.1,6.5,10.4,13,20.8,19.4,31.2,1,1.6,2.2,2.4,3.4,2.6,0,0,0,.2.1.2,2.8,5.9,7.9,7.6,11.7,1.6,4.2-6.8,4.7-17.7,2.4-25.1-2.2-7.2-4.8-14.3-7.8-21.2,2.4,1.8,4.9,3.7,7.3,5.5,4.2,3.1,7.9-3.2,9.2-6.4,4.6,3.2,9.3,6.3,13.9,9.5,6.2,4.2,9.9-7.7,10.6-11.2,1.4-6.9,1.9-18.8-3.5-24.4h0ZM602.1,500.9c-1.4-1.1-2.8-1-4-.4-1.6-2-3.8-3-6.6-1.5-.9.5-1.7,1.1-2.3,1.9-.8-2-1.5-3.9-2.3-5.9-1-2.6-2.9-5.1-5.5-5.5,0-.4-.1-.8-.2-1.2-.4-2.1-1.4-5.8-3.1-8.6,1.8-2.3,2.9-5.2,3.5-8.3,8.1,1,16.2,2.9,24,5.6,1.8.6,3.3.5,4.6-.1,15.9,8.3,31.6,17.1,47,26.3-.3,1.8-.5,3.7-.6,5.6-2.3-.2-4.8,1.6-6.3,3.9-5.4-7.1-10.9-14.2-16.3-21.3-3.2-4.3-7.4-2.5-9.9,1.5-.5.9-1,1.9-1.5,2.9-1.7-1.3-3.8-1.6-6.2.5-3.6,3-5,8.3-5.4,13.4-2.6-3.1-5.5-6-8.8-8.6h0Z"/>
    </g>
    <g>
      <path class="st1" d="M671.3,491.8c-6.2-6.5-13-12.2-20.5-17-6.4-5.3-12.9-10.5-19.3-15.8-4.6-3.7-8.6,4.4-9.8,8-4.6-4.3-9.5-8.4-15.4-10.8-.3-.9-.5-1.8-.8-2.6-1.6-5.3-6.5-13.8-12.2-7-2,2.4-3.3,5.7-4,9.3-3.5-1.6-7-1.9-10.5.6,0,0,0,0-.2.1-1.7-1.1-3.3-2.2-5-3.3-6.2-4.1-9.9,7.6-10.6,11.2-1.5,7.7-1.4,17.8,3.5,24.4,6.3,8.5,13.2,16.4,20.6,23.8,3.8,4.1,7.8,8,12.2,11.5,2.3,1.9,5.4-.2,6.9-1.9,1.3-1.5,2.2-3.6,2.9-5.8,2.2,2.4,4.4,4.9,6.5,7.4,5.5,6.5,10.8-1.4,12.2-6.9.2-.7.3-1.4.5-2.1,3.8,2.6,7.8,4.6,12.7,5.9,2.5.7,4.4-1.8,5.8-4.7.1,0,.2,0,.4,0,.8,0,1.5-.2,2.2-.6,4.9,4,9.8,8,14.7,12,5.8,4.8,10-8.2,10.6-11.2,1.4-6.9,1.8-18.8-3.5-24.4h0Z"/>
      <path class="st1" d="M555.1,506.1c-.2-7.8-1.2-15.5-2.9-23.1-.9-4.1-4.6-12-10-9-2.4,1.3-3.9,3.9-4.9,6.8-4.5-5.1-9.7-7.2-16.2-4.9-.8.3-1.5.6-2.3,1-.1-.5-.3-.9-.4-1.4-1.2-3.3-4.7-10.1-9.3-7-19.2,12.5-32,31.4-38.8,53.1-2.2,7-1.9,16.8,1.3,23.6,1.9,4,7.3,8.7,10.8,3.1,3.1-4.9,6.2-9.8,9.3-14.8,2-3.3,3.4-7.1,4.1-11,1.5-2,3.1-3.8,4.8-5.6.6,1.8,2.1,5,4.2,6.7-2.4,5.8-4.8,11.5-7.1,17.3-3.4,8.3-4,19.2-.1,27.6,2.1,4.4,5.2,6.1,8.1,4.9,3.3,2.7,6.8.8,9.5-4,4.2-7.4,8.6-14.8,12.8-22.3.3.3.6.6.9.9,1.9,1.5,3.6,1.7,5,1.2.2.3.5.7.7,1,5.7,6.9,10.6-1.8,12.2-6.9.2-.8.4-1.3.6-1.8.8-.6,1.5-1.4,2.2-2.4,7.3-9,7.7-22,5.7-32.9h0Z"/>
      <path class="st1" d="M270.3,554.4c-3.8,0-5.9,3.4-7.2,7.4-1.5-1.2-3-1.6-4.4-1.2-.7-2.3-1.8-4.4-3.2-6.1-.2-.2-.4-.4-.6-.6-2.5-3.5-5.9-5.9-9.2-1-5.3,8-9.8,16.4-14,25-1.9.5-3.8,2.2-5.3,5.1-14.4,27.7-26.3,56.6-35.7,86.4-3.9,2.3-5.7,10.7-6.3,13.7-2.7,14.2-5.5,28.4-8.2,42.6-.9,4.4-.8,11.4,1.1,16.8-.8,6.8-1,20.1,6.1,24,7.3,4,10.4-9.4,11-13.6.4-2.5.8-4.9,1.2-7.4,0-.2.2-1,.3-1.6.1-.6.4-1.7.4-1.9,1-4.9,2.2-9.8,3.6-14.6,1.3-4.6,2.7-9.1,4.2-13.6.1-.3.4-1,.4-1.3.4-1.1.8-2.3,1.3-3.4.9-2.3,1.9-4.7,2.8-7,3.2-7.6,6.9-14.8,10.9-21.7.7,4.3,2.2,8.3,5.1,10.6,5.8,4.7,9.7-2.9,11.2-7.9.8-2.6,1.7-5.4,2.8-8.2-.4,3.3-.7,6.6-.9,9.8-1.4,10.8-2.6,21.8-3.1,32.7-.4,11,1.2,24.7,10.8,31.7.4.3.8.5,1.2.6.5,2.2,1.1,4.4,1.7,6.6,1.1,4,4.4,12,10,9,5.5-3,6.9-13.4,6.6-18.8-.8-14.8-1.5-29.5-1.5-44.3,0-3.6,0-7.2.2-10.8,0-2,.1-3.9.2-5.9,0-.5.2-3.4.2-3.8.5-6.7,1.3-13.3,2.1-19.9,2.7-20.4,7-40.7,10-61,3-5.1,3.3-12.7,2.2-19.2.2-2.6.4-5.1.6-7.7.3-5.2-1.3-19.5-8.8-19.5h0Z"/>
    </g>
    <g>
      <path class="st1" d="M668.2,530.5c-7.3-7.4-15.7-13.4-24.3-18.9-11.2-10.7-23.7-19.9-37.4-27.1-2.4-1.3-4.4-.6-6,.9-5.1-3.2-10.3-6.4-15.3-9.7-1.6-1.2-3.3-2.5-5-3.6-.6-.4-1.2-.6-1.7-.8,0,0-.1,0-.2-.1-6.9-7.1-14.2-13.8-21.7-20.3-2.1-1.8-4.1-.9-5.8.9-3.3-2.9-6.5-6-10.3-8.2-10.1-6.2-19.6-2-29.4,2.5-10.3,4.8-22.8,8.6-31.2,16.5-12.5,11.9-12.1,34.8-3.6,48.6,4.7,7.7,11.1-2.4,12.2-6.9.7-2.7,1.1-5.4,1.2-8.2.2-.2.5-.3.7-.5,3.8-2.2,7.9-3.9,11.8-5.7,3.9-1.8,7.8-3.6,11.6-5.4,3.8-1.8,7.8-4.2,12-5.1,7.8-1.7,13.4,4.4,18.8,9,2,1.7,4,3.3,6.1,4.9.4,2.7,1.2,5.2,2.4,7.4,5.2,9.5,11.5,17.4,19.9,24.3,3.4,2.8,6.3-.5,8.2-4.4,4.8,6.3,10.3,12.1,16.7,17.2,2.5,2,4.6.8,6.3-1.4,4.3,6.2,8.5,12.5,12.8,18.7.8,1.2,1.7,1.9,2.5,2.3,1.8,4.6,2.6,7.2,4.2,12.8,1.4,4.7,5.3,13,11.1,8,5.9-5,5.9-16.1,5.3-23-.1-1.7-.3-3.4-.6-5,16,16.2,28.3,35.7,35.8,57.3,1.5,4.3,5.8,7.4,9.7,4.1,4.8-4,5.3-12.1,5.6-17.8,1.2-22.9-6.1-46.9-22.5-63.4h0Z"/>
      <path class="st1" d="M311.5,589.5h0c-.5-4.2-1.7-8.2-4.2-11-12.7-15-27-28.6-42.6-40.6-4.2-3.3-7.5,2.2-9.2,6.8-1.8-3-4.3-5.5-7.1-4.4-1.5-.1-3.1.5-4.9,2.3-2.5,2.5-5,5.1-7.5,7.7-2.2-4.8-6.2-9.3-10.9-3.8-5,5.9-9.9,11.8-14.8,17.8-.3-.6-.6-1.2-.9-1.7-1.4-3-3.5-5.7-6-5.9-1.7-.5-3.6,0-5.6,2.3-10.5,11.6-20,24-28.9,36.8-15.2,20.1-28.4,41.8-39.8,64.3-.6,1-1.2,2-1.8,3.1-1.7,2.9-2.4,4.1-3.4,5.4-2.8,4.1-4.4,8.6-5.3,13.5-.4.6-.8,1.4-1.2,2.2-1.6,3.6-2.9,7.3-4.3,10.9-2.9,7.1-3.8,16.1-1.6,23.7,0,.2.1.4.2.6,0,.2.2.4.2.6.1.3.2.7.4,1,.2.5.4,1.1.7,1.6,1.2,2.5,3.1,5.7,6.3,5.7,1.3,0,2.4-.6,3.3-1.4-3.8,7.3-3.3,17.9-.7,25.4,1.5,4.2,7.3,12.1,11.5,5.1,4.7-7.8,9.5-15.7,14.2-23.5,3.2,2.2,7,.8,9.1-4.3,4.3-10.4,8.9-20.6,13.9-30.6,2.4,3,5.6,4.6,8.5,0,8.2-12.8,16.5-25.5,25.1-38,0,.5,0,1-.1,1.5-1.8,4.6-3.8,9.1-6,13.7-1.8.6-3.4,2.3-4.4,5-1.5,3.8-2.9,7.7-4.1,11.6-.2.6-.4,1.2-.6,1.7-7.3,15.1-13.2,30.5-15.8,47.2-1,6.6-.7,18.4,5.1,23,5.9,4.8,9.5-3.1,11.2-7.9,1.4-4,2.8-8,4.2-12,3.1-1.1,5.1-5.8,6.2-9.2-.6,1.6,1.1-3,1.1-2.9.6-1.7,1.3-3.4,2-5.1,0-.2.2-.4.3-.6,1.7-.9,3.2-2.6,4.2-4.8,4.8-10.9,10.3-21.5,16.4-31.7,4.3-5.7,8.1-11.7,11.4-18,1.6-3,2.5-6.7,2.8-10.5,4.5-8.6,8.9-17.1,13.4-25.7,2.5-4.9,3.4-11.5,2.8-17.6l12.2,25.1c1.2,2.3,3.2,5.7,6.3,5.7,3,0,5.3-3.4,6.3-5.7.9-2,1.5-4.1,2-6.4.2-.1.5-.3.7-.5,1.6.2,3.3,0,5-1,5-2.8,7-9.5,8.1-14.6.4-1.8.6-3.7.7-5.6,0,0,0-.2,0-.2,2.8,3.5,5.6,7,8.5,10.4,1.5,2.4,3.2,4.8,5.2,6.8.6.6,1.2,1.1,1.8,1.5,1.4,1.6,2.7,3.2,4.1,4.8,5.6,6.4,10.8-1.3,12.2-6.9,2-8,2.4-19.7-3.1-26.7-4.2-5.4-8.4-10.8-12.7-16.2h0Z"/>
    </g>
    <g>
      <path class="st1" d="M414.5,270.6c-.5-11.9-1.2-25-6.4-35.6-1.5-3.1-4.1-5.7-6.8-5.5-.2-1.3-.4-2.5-.6-3.8-1.1-6.8-3.3-21.1-12.3-21.8-5.2-.4-8.3,4.6-10.4,9.5-.8-7.6-3.1-20.2-11-23-3.2-1.1-4.5-.4-6.9,1.9-4.1,4.1-6.6,9.4-8.4,15-2.1-4.9-6.7-10.2-11.3-4.3-4.2,5.4-6,12.5-7.6,19.1-1.9,8.2-2.8,16.4-3,24.9-.1,4.3.8,14.7,5.4,18.3-.1,15.8-.3,32.6,5.7,47.5.9,2.2,3.4,5.8,6.3,5.7,8.9-.3,10.8-15.3,11.4-21.7.2-1.8.3-3.6.4-5.5,0-1,.2-2,.2-3,.4-5.1.7-10.2,1.1-15.3,0-.7.1-1.4.1-2.1-.1,9.7,0,19.4.4,29.1-1,8.6.3,21.1,8.1,25.2,4.1,2.1,7.2-1.6,8.7-5,4.1-9.1,5.3-18.8,5.9-28.7.2-3.3.4-6.5.5-9.8.1-1.9.2-3.8.3-5.6,0-.6.1-1.7.1-2.2.1-1.4.2-2.8.4-4.3.2,10.5.4,20.9,1.1,31.4-.4,7.2.6,15.6,5.5,20.7,3.5,3.6,6.5,2.6,8.8,0,1.5,2.6,3.4,4.9,6.8,4.1,4-.9,5.5-5.9,6.6-9.3,2.1-6.6,2.2-14.4,1-21.2.5-2.4.7-5,.9-7.4.4-4.5.7-11.7-1.1-17.2h0ZM353.9,285.6h0v.2s0-.1,0-.1h0Z"/>
      <path class="st1" d="M332.6,626.9c-2.4-3.1-4.9-6.1-7.4-9-2.1-2.5-5-7.1-8.8-7.1-2.1,0-3.8.9-5.1,2.3-.4-.2-.7-.3-1-.4-5.9-5.3-12-10.2-18.5-14.9-3.1-2.2-5.7,0-7.5,3-.3-.2-.6-.4-1-.6-6.4-3.8-9.8,7.3-10.6,11.2-1.6,7.9-1.2,17.5,3.5,24.4,1.4,2,2.9,4,4.5,5.8.7,3.3,1.9,6.6,3.7,9.4,1.9,3,4.3,5.2,6.9,7.5,2.7,2.3,5.5-.2,7.3-2.7,2.5,1.4,5.4,2.7,7.9,2.9,2.2.2,4-.5,5.4-1.5,2.7,3,5.5,5.9,8.4,8.7,3.1,3.5,6.6,6.8,10.4,9.6,1.4,1.3,2.9,2.5,4.4,3.7,1,.8,2,1.1,2.9,1,.2.1.4.2.6.4,6.4,3.5,9.8-7.1,10.6-11.2,1.6-8,1.1-17.4-3.5-24.4-4.2-6.2-8.5-12.3-13.2-18.2h0Z"/>
    </g>
  </g>
  <g id="Layer_2">
    <g id="Layer_1-2">
      <path class="st3" d="M278.8,539.3c2,2.7,6.2,3.5,8.6,5.4,37.2,29.2,45.1,64.3,70.1,101.4,2,2.9,9.1,9.9,9.9,12.2,2.6,8.2-4.2,12.3-6.7,19.4-4.3,12,1.8,12.4,5.7,22.7,11,29.4,8.7,66.9,14.8,97.2.8,3.8,7,23,10.4,23.6,5.8-1.5,11.4-3.8,17.1-5.6,2.5-.8,6.4.3,8.1-2.9-2-6.8-6.2-15.4-7.6-22.1-2.5-11.9-1.8-31.2-5.5-42.5-1.9-5.8-7.7-4-5.2-13.8s11.5-9.4,14.4-13.6c.8-1.1,4.1-9.5,4.1-10.8-.1-3.4-3.8-8.8-4.7-12.3-1.3-5.1-1.4-13.1-2.5-18.5-1-5-3.3-20.2-5.5-23.5-.8-1.1-1-2.2-2.7-2.3l-24.5.6c-1.9-3.9-7.1-15-3.7-18.4,5.4-3.8,10-1,15.2-1.2,9.5-.2,25.9-5.1,35.5-7.5,22-5.7,51.6-17.4,73.6-19.5,5-.5,22.7,2.2,20.7,9.7-2.2,8.8-7.2,6.2-12.8,7.3-7.2,1.5-14.6,4.7-22.5,5-1.6,1.9,4.8,19.1,5.6,22.7,1.5,6.3,3.2,14.7,4,21,.7,5.5-.3,24.6,4.3,27.7,5.5,3.7,12.5-1,16.5,8.5,4.9,11.8,8,38.5,10.8,52.2.6,3,1.9,6.1,2.6,9.4.5,2.4-1.1,7.3,2.5,7.3,4.9,0,13.7-5.3,19.5-5.1,2.2-12.9-5-24.1-8.4-35.9-4.1-14.5-10.4-35.7-13-50-1.3-7.2-1-14.9-2.7-22.3-3.1-13.5-13-26.7-8-40.8,5.2-1.7,9.5-1.3,11.8,4,2.7,13.2,8.6,25.5,11.3,38.7,4.1,20.2,5.8,35,12.8,55.2,5.1,14.9,14.4,30.2,14.5,46l45-11c1.1-1.2-4.5-19-5.5-21.9-8.2-24.9-24.2-48.5-20.7-75.3l-12.6-29.5c-.2-1.7.1-3.2,1.5-4.3,13.5-11,23.7,21,26.2,29.6l1.4.3c4-2.9,12.2-2.5,16.1.2,3.5,2.5,4.4,17,5.9,22.1,1.3,4.7,4.2,10.3,6.2,14.8l15.6,54.4c2.4,3.6,9.9-1.8,13.8-1.5,1.5-8.5-3.8-16.3-5.6-23.7-.9-3.6-.8-7.9-1.6-11.4-4.3-18.8-7.9-37.7-15.7-55.4-.8-2.8,1.4-6.2,3.3-8.1,1.1-1,3.1.2,3.7-2.8.5-2.4-4.5-17.4-5.5-17.5-3.1,1.9-7.6,5.5-11.2,5.8-1.2,0-8.5-.8-9.3-1.3-1.5-.7-8.1-13.9-8.7-16.3-2-25.8-10.3-55.4-11.3-80.7-.2-6.2,4.1-10.2,10.3-9.3,8.8,1.2,10,28,11.7,34.8,1.8-.4,1.9-2,2-3.5.7-5.9-2.2-17.2,6.5-18.5,16.2-2.4,7.5,18.3,12,26.9,7.1,13.8,7.9,28.2,11.7,43.3,1.9,7.5,5,21.6,8,28,2,4.2,7.6,5.5,9.9,10.1,2,3.8,2.1,8.9,3.8,13.2,8.9,22.5,11.9,36.7,16.8,60.2.9,4.4.6,9.8,1.7,14.3,1.2,1.9,5.6,0,7.5-.6,3.2-.8,17.5-4.6,18.4-6.7,2.2-5.5-6.2-21.2-8.4-27.2-5.6-15.4-13-35.8-14.8-52.1-1.2-11.3,5-12.5,5-19.9,0-5.6-3.5-11.1-4.6-16.5l-1.8-.8c-8.3.5-13.2,16.8-22.7,7.4l-25.9-75.9c-1.3-2-6.6-1.1-9.1-3.2s-6.1-13.2-3.8-15.2c14.4-6.5,26.2,2.5,30.8,16.2,5,14.7,10.2,29.6,14.5,44.5.3,1,1.2,4,2.5,4l-1-19.5c.6-6.3-6.5-20.3-3.1-25.1,1.6-2.2,6.9-1.8,6.1-3.9-.2-.4-5.9-5.9-6.7-6.5-1-.8-3.2-.7-4.8-2-4.5-3.5-11.2-12.4-6.5-17.5.6-.7,6.2-4.2,6.7-4.3,3-.5,11.3,4.5,13.8,6.8,6.6,6.1,15.4,14.2,21.5,20.5,3.3,3.3,5.2,7.7,9,10.5.2-1.8,0-3.2-.5-4.9-10.3-30.2-31.7-37.4-53.9-54.1-16.1-12-43.2-43.9-63-46-7-.8-20.7,1.9-27.2,4.8-5.3,2.4-21.5,17.8-24,18-2.1.1-7.7-5.9-8.2-7.5-1.4-4.5,2.8-8.9,1.3-13.3-4.9,1.9-10.8,4.1-15.4,6.6-6.3,3.4-12.9,8.7-19.9,12.1-8.4,4.1-18,3.5-21,14-1.9,7-4,27.6-3.2,34.7.3,2.6,2,4.1,2,8.1,0,3.2-2,17.5-4.8,18.4-8.9,2.9-13.4-12-13.4-18.3,0-14.6,3.8-36.8,8.3-50.8,3.2-10.2,16.5-14.3,24.6-19.4,9.3-5.8,18.6-13.2,28.7-17.3,20.2-8.3,38-8.6,58.9-10.1,12.4-.9,27.8,3.2,38.7,9.2,2.6,1.4,18.9,15.8,20.7,13.8,1.8-9.9-3.7-18.4-4-28.5-.2-5.9,2.3-10.4,2.1-16-.7-21.4-10.9-37.1-17-56-1.5-4.4-1.3-8.7-2.4-12.6-4.4-15-23.9-38.4-36.6-47.4-3.2-2.3-9.4-4.6-11.4-6.6s-1.8-4.3-3-6c-4.8-6.5-30.1-18.7-38.3-23.7-1.7-1-3-3.4-4.2-3.9-2.8-1.2-7.3,3-9.3-3.6s4.7-10.5,7.8-14.9c3.5-4.9,9.3-13,11.8-18.2,8.9-19.3,1.2-44.3-.2-64.7-1.2-.8-9.3,6.8-10.5,8-2.8,2.8-9.7,12.2-10.9,13.1-2.4,1.6-5.8,1-8.1,2.9-2.9,16.2,8.4,53.2-21.2,38.8-2.3-13.4,1-27.1.8-40.8l-9,1c-.6,2.4.7,5.1.6,7.3-.3,5.9-4.6,9.6-6.5,14.3-4.3,10.4-8.9,27.5-17.7,35.3-4,3.5-16.4,6.2-18.5.1h-1.4c-9.4,11.9-20.1,12.4-32.9,4.8-18.2-10.9-15.6-40.1-18.4-58.6-.6-4-.7-8.2-1.2-12.2-7.1-3.5-29.1,13.3-29.7,18.6-.2,1.8,1,4.4.8,6.9-2.1,24.6-16.2,45.4-25.6,67.5-1.9,2.4,3.9,9.7,5.6,10.5,6,2.8,16-.6,21,5,2.7,3,1.1,5.5,8,5.5,1.8-10.8,8.5-13.6,17.2-7,1.7,1.3,5.5,6.4,6.5,6.8,8.7,3.3,28-3.7,26.3,11.2,12.3-1.1,19.2,10.2,9.3,19l-31,7.7c-2.3-1.1-6.1.4-7.6,0-1.6-.4-2.4-3.3-5.1-2.9-3.6,9.9-11.5,7-18.8,9.1-.9.2-.9,1.7-2,2.2-7.2,3.6-12.2.8-19.2.7-8-.1-15.9.4-23.9.9-5-5.2-7.8-6-6.7-14.4,1.5-11,19.9-6.7,27.3-5.2,2.3.5,4.5,2.6,7.2,2.6,3.9,0,13.7-3.2,19-3.8,3.6-.4,13.9.3,15.8-.2,1.4-.3,8.2-7.1,14.4-8.6,1.9-.4,9.1.6,8.3-2.7-4.5-4.5-11.4.7-17.5-.5-2.5-.5-3-3.2-5.9-3-3.1.2-8.1,6.7-14.3,7.8-8.4,1.4-17.4,1.8-25.5,2.5-2.5.2-6,3.3-8.1,2.7-7.1-6.9-2.2-11.5,1.2-18.3-6.1-5.6-14-8.5-10.9-18.6-8.6.5-14.5,6.2-23.5,5.6-1.6-.2-5.9-6.2-7.9-7.6-1.1-.8-12.3-6.9-13-7-1.9-.3-1.3.2-1.7,1.3-.9,2.1-1.7,6.8-1.8,9.2-.6,11.4,10.1,29.4-10,28.5.6-7.2-3.6-14.2-4.9-20.6-3.8-18.5-4.8-38.2-8.3-56.7-1.5-8-5.5-14.5-5.8-23.3-.2-4.8,4.2-6,5-10,.7-3.3-3.7-4.3-1.8-10.7,1.1-3.8,15.5-11.9,19.4-13.6,10.1-4.3,47-7.5,57.6-4.9,5.2,1.3,15.5,8.6,20.2,7.8l16.6-12.4c9.7-3.9,18.3-8.4,29.2-6.3,4.6.9,11.2,6.8,14.2,6.8,5.9,0,17.5-9.2,25-10.1,11.3-1.3,18,2.2,28.2,4.8,2.2.5,4.5-.1,6.6.4,3.1.9,5.6,7,7.4,9.5.5.7-.2,1.7,1.7,1.2,3.1-5.6,12.8-11.8,15.6-16.4.6-1.1,1.1-1.6,1-3-.2-2.3-12.2-15.1-14.3-18.8-3.8-7-4.2-15-3.8-22.7-1.8-1.7-7.2,6-9,7.5-7.8,6.5-11.2,5.1-18.8,8.2-2.8,1.2-5.6,5.9-8.3,7.7-3.6,2.4-8.1,3.1-12.5,3.6-10.1,1-20,.9-29.9,1-13.4,0-26.5,3.2-36.5-8,1,5.4-12.7,11.9-16.7,12.8-4.3.9-9.4-.2-13.8.2-8.2.8-14.2,4.5-22.9-.2-8.2-4.4-10.3-12.6-9.6-21.3.7-9.3,6-16,7.9-25.1.5-1.2-.2-2-1.4-1.4-2.8,1.2-9.3,10.3-13,12-1.4,4.3.2,9-.7,13.3-.2.9-4.6,8.2-5,8.5-1.4.8-6,.4-8.7,1.8-3.1,1.6-6.9,7.7-10.1,9.9,6.4,1.1,13-5.6,17.5-9.5,2.2,3.8,4.2,0,3.4,6.4-1.2,9.4-14.5,23.6-23.9,25.2-4.8.8-14.4-.8-17.5-4.6-.6-.7-4.4-8.8-4.5-9.4,0-4.9,5.2-11.5,5.8-16.1s-.8-7.8-.9-11.9c-.6-21.8,23.2-32,38.2-42.9.7-.5,2.4-.4,2.7-.7.5-.6,0-4.4.4-6.1,1.5-6.4,5.8-6.9,9.2-10.8,3.2-3.7,6.3-9,9.9-12.6,7.4-7.2,20.3-16.1,31-12.2,2,.7,2.6,4.3,4.7,5.3,6.5,3,15.7-7.4,21.8-10.2,21.5-10,53.5-14.2,76.4-7,8.8,2.8,11.4,9.7,19.4,10.6,9.5,1.1,13.1-4.3,22.2-4.6,10.1-.4,31.3,4.6,39.2,11.3,2.9,2.5,5.7,9.6,6.6,13.4,4.7,19.9,5.1,40.9,3.4,61.6-.2,2.5-3.6,16-3,16.5,4.3-1,11,1.5,14,4.5,1.9,1.9,0,5.8,2.4,7.6,1.6,1.2,4.3.8,6.3,1.7,4.8,2.2,13,14.8,14,20,1.7,8.1,1.8,30.1,1.3,38.8-.7,12.8-3.3,24.8-8.7,36.4-2.2,4.6-5.8,7.4-8.2,11.6,0,.8,8.8,6.5,10.3,7.5,10.7,7,18.1,12.5,28.1,19.9,5.6,4.2,13.8,8.1,18.5,12.5,6.4,5.9,27.2,32.1,30.4,39.6,6.7,15.9,9.6,32.3,14.3,48.7,2.4,8.3,7.4,15.8,8.3,24.7.4,4.5-.3,9.1.2,13.8,1.7,13.5,12.2,30.4,6.3,43.8-1.8,4-8.1,5.5-7.1,10,2.8,12.6,20.9,18.2,30,25,9.8,7.3,28.5,26.6,35.4,36.6,3.5,5.2,4.7,11.6,8.8,17.2,4.1,5.8,14.8,14,16.9,20.1,1.2,3.5,1,7.3,2.5,11.5,5.1,14.1,14.5,28.2,20.1,42.9,10.7,28.6,19.3,58.1,30.5,86.5,1,2.5,3.5,9.8,6,10.1,2.8.4,17.6-8.5,18.3-10.8.8-2.9-4.9-28.5-6.3-33.3-6.2-22.3-16-43.8-23.3-65.7-4.7-14.1-7.9-28.9-11.8-43.2l-1-1c-3.5,1.7-15.5,3.8-18.8,2.8-4.6-1.4-8.9-11.3-4-14.6,2.7-1.8,14.5-5.1,18.5-6.5,5.5-1.8,12.7-4.5,17.9-6.1,11.4-3.3,26.4-4.7,37.1-8.9,4.9-2,4.2-8.8,12.2-7.7,2.4.3,3.8,2.1,7,2,8.1-.2,22.1-7.6,29.2-8,6.6-.4,11.3,1.5,15.4,6.5,15.1,18.3,26.8,56.2,32.7,79.3,4.6,17.8,5,37.1,11.5,54.5,3.5,9.4,13.5,21.4,6.8,31.2-3,4.4-20.5,13.3-26.3,15.7-2.5,1.1-5.4.8-8,2-3.2,1.5-4.3,5.4-5.8,6.2-3.4,2-15.8,7.4-20,9-6.6,2.5-17.3,3.8-22.7,6.3-2.5,1.1-4.4,5.4-6,6.2-2.2,1.1-4.8,1-6.8,2-3.3,1.6-7.1,4.6-10.7,5.4-4.8,1-10.5-10.7-15.1-11.2-1.5.9-2.5,2.3-4,3.1-3.9,2-14.6,8.4-17.7,9.3s-10.3,1.5-14.7,2.3c-27.5,5.3-75,16.9-99.7,29.1-6.2,3.1-7.7,1.8-14,3.2-15.6,3.5-32.9,11.3-48.5,14.5-8.6,1.8-20.2,1.7-28.5,3.5-40.5,8.7-80.1,22.4-118.7,36.3-21.1,7.6-42.6,12.5-64,19-20.6,6.3-40.9,14.3-61.9,20.1-5.1,1.4-21.1,2.8-24.1,6.9-1.4,1.8-.8,4.5-2.2,6.3-2.4,3-8.4,3.7-12,3-2.9-.5-2.5-2.5-3.9-3.1-5.7-2.2-8,1-12.5,2-12.8,3-27.7,5.9-40,10-4.6,1.5-8.7,6-14.2,4.7-1,4.8-1.7,11.9-7.7,13.3-10.6,2.5-11.9-7-16.5-6.6-1.3.1-8.6,2.7-10.8,3.3-2.3.7-4.5,2.8-6.7,3.3-3,.6-5.9-.3-9,1-5.5,2.3-3.7,12.5-12.5,10-1.5-.4-2.6-2.3-4.4-2.5-6.1-.8-27.9,9.3-35.2,11.5-35.5,10.7-72,19.6-108,28-6.9,1.6-11.5,1.3-15-5.4-1.7-3.3-3-6.4-1.4-10.1,4.8-11,23.9-4.6,25.2-11.8-1.1-12.3,2.2-24.8,1-37-1.8-17.8-10-34.4,3.1-50.9,4.2-5.3,5.7-.9,6.7-12.3,1.5-16.9-.6-40.5-.9-57.8,0-4.5.2-9,0-13.5-10.8,0-21,9.1-30.9,2.4-3.1-.5-2.2,8-2.1,10.1,2.1,45.7-3,94,5.1,138.9,1.5,8.6,9.9,16.9-.5,22.6-7.2,4-9.3,5-14-2.1-4.9-7.6-6.2-17.6-7.5-26.5-4.5-30.5.2-60,1-90.9.4-18.6-3.2-37.9-2-57.1.2-4,.6-11.5,4.8-13.2,7.7-3.2,8,4.8,11.7,4.8,8.9-6.3,19.3-6,29.1-9.9l44.4-1.1c-2.3-6.5,0-12.7.2-19.3,8.1-13.7,17-27.2,25-41,3.1-5.4,6.7-15.9,9.8-19.9,1.2-1.6,4.2-2.1,4.8-3,1.1-1.7,1.8-9.1,2.8-11.7,7.3-20.2,15-32.8,26.9-50.1,9.6-13.9,15.3-29.5,35.5-17.3-.7,8.2-7.9,12.6-11.9,18.2-12.9,17.8-28.2,41.9-35.1,62.7-1.1,3.3-2.3,7.7-2.9,11.1-.2,1,0,2.3.9.9,7.9-11.3,21-7,19.8,6.8-10.8,16.7-18.7,34.9-27.1,53-4.4,9.5-11.9,19.8-11.7,30.8,4-2.7,5.1-8.6,7.5-13s8.6-17.6,11.6-20.4c6.6-6.1,10.9.2,17.9,1.4.3-18,11-31.5,19.2-46.3,2.5-4.4,9.5-21.4,11.9-23.1,2.8-2.1,10.6-.7,12.9,1.9,8.7,9.7-8.9,28.8-13.8,37.2s-8.6,16-11.1,25.9c-1,4.1-3.7,15.1-4.1,18.9-.9,9.3.6,17.1,6.5,24.5,5.1-5,1.1-12.2,1.5-18.5.6-8.6,16.9-44,22.4-51.7,6.3-8.7,9-3.8,13.2-6.8,1.6-1.1,3-5.8,4.8-7.7,5.4-5.9,13.8-4,14.7,4.1s-5.3,22.8-6,32c-.7,10,3.4,31,8,40,2.5,4.9,5.5,6.4,11,5.5l-4.9-39.3c2.9-18.4,7-36.5,11.4-54.7,1-3.9,3.7-8.2,4.3-11.7.5-3.3-.6-8.6,1.1-10.9.7-.8,6.5-3.3,7.6-3.4,1.3,0,12.5,1.1,13.5,1.4,2.4.8,2.4,2.9,3.6,3.6,13.9,8.7,25.4,25.5,42,29.7,2.9.7,6.3,0,9.2.2.9-.8-3.8-8.7-4.6-9.9-6.8-10.5-18.7-25.1-24.3-35.7-1.7-3.2-2-8.2-4-12-1.8-3.6-4.9-5.7-6.6-8.4-9.8-16.6-15-25.9-29.5-38.4-3.6-3.1-24-6.1-29.3-5.2-6,1-10.7,6-18.3,5.8-8.4-.2-14-12.6-8.1-19.2,3.2-3.5,11.1-3.2,15.6-4.4,23.9-6,21.5-3.6,44,.5-1.5-2-1.7-4.7-3.5-7-2.5-3.3-6-4-8.6-6.4-1.1-1-7.9-8.1-8.2-8.8-2-4.5,1-8.3,3.9-11.6,9.7,0,16.7,4.9,23.4,11.4,3.8,3.7,11.3,11.5,8,17.1-.5.8-6,6-6.8,6.3-2.4.7-5.8-.4-8.3-.8h0c0,0,0,0,0,0ZM431.8,20.3c.2-4-2.6-1.8-4.2-2.2-5.9-1.4-10.4-2.5-16.8-1.7-.4,2.3.1,1.6,1.3,2.2,6,3.3,13.3,3.7,19.7,1.8h0ZM378.8,21.4c-2-.6-9.5,2-9,4.5,1,4.6,8.4-2.4,9-4.5ZM445.8,42.4c-4.5,1.5-16-3.6-15,3,5.1.9,14.6,5.3,15-3ZM306.8,54.3c3.5,2,18.8-7.6,19-9.5.2-2.9-6.6,1.3-7.3,1.6-3.8,1.9-9.1,4.7-11.6,7.9ZM381.6,45.6c-2.4-2.2-18-1.2-22.3-1.2-2.4,0-4.6-1.1-7-1.1-7,0-13.9,5.8-17.9,11.2-1.2,1.6-8.6,14.6-8.5,15.4,0,.8,1.5,1.8,3,1,2.7-1.4,7-5.9,10.1-7.9,2-1.3,4.5-1.6,6.8-3.2,3.5-2.4,9.7-9.2,12.8-10.2,8.1-2.4,13.4-1.1,21,2.5,2,1,2.9,3.4,5.3,3.2-2.8-2.6-.4-7-3.3-9.7h0ZM403.8,52.4c-3.6-1-11.7-2.2-14.6,0-.4.3-5.9,7.2-6.2,7.8-1.3,2.6-.7,5.2-1.5,7.5-2.2,6.1-5.3,11.8-7.7,17.8,1.8.4,2.4-1,3.5-2,3.6-3.2,10.6-19.7,13.7-25.3.6-1.1.7-2.5.8-3.7.5-.5,12.8,3.4,12-2h0ZM373.8,104.3c5.8-.6,4-9.7,5-14-4.5,2.9-6.1,9-5,14ZM502.8,149.4c-1.4-.2-4.7,4.3-5.3,5.2-.9,1.5-2,2.8-1.7,4.8h6.9c1.5-3.3-.4-6.5,0-10h0ZM442.8,151.4c-2.7.2-6-1-8,1.5,2.3,3.5,8.6,4.1,8-1.5ZM455.8,168.4c-2.9-2.3-9.9,10-9,11,5.5-2.6,8-4.9,9-11ZM320.8,178.4c.6.7,8.4-3.5,8-5.5-.9-4.5-9.6,2.3-8,5.5ZM271.8,174.4c-6.4,1-9.9,7-17,6.5.8,2.2,3.4,1.6,3.8,1.8.6.4.7,2.3,1.8,2.6,3,1,10.3-8,11.4-11h0ZM892.5,594.7c5.9,6.6,5.1,20.3,6.8,28.7,2.3,11.6,6.6,31.5,11.1,41.9,2.1,5,3.6,6.5,9.5,4.6,10.9-3.4-.3-20.4-2.2-26.9-5.1-17.4-5-36.6-10.1-54.9-4.9-17.4-11.6-39.1-20-55-1.9-3.6-5.6-9.7-10.1-9.5l-22.7,6.4c1.8,12.3,8.2,23.2,13.7,34.2,1.5,2.9,4.1,5.5,5.6,8.4,2,3.8,4,12.5,6.4,15.6,1.5,2,8.7,2.6,12.1,6.4ZM814.1,605.1c3.8,2.5,7.1-2.5,11-1.6,3.4.8,7.5,7.5,10,10.1,7.2,21.5,12,43.7,17.5,65.5,1,3.9.5,8.6,2.8,12.3,1.7,1.9,22.8-2.2,25.5-4.6,1.9-1.6.9-5.4.5-7.6-3.7-24.1-18.2-48.8-18.6-75.5,0-3.3,1.8-5.4,1.9-7.9.3-10.2-14.9-31.5-19.7-42.2-1.4-3.1-5.3-16-6-17-.5-.6-1.1-1-1.8-1.2-2-.6-27.8,5.6-31.7,6.9-1.7.5-8,2.2-8.5,3.6l17.2,59.2h0ZM734,586.4c-.7.5-.5,3.6-3.4,3.7-5.8.1-12.6-2.2-17.2-5.8-9.3-7.3-8.4-22.6-17.5-30,2.3,8.4,6.3,16.5,8.5,25,3.9,15.4,6.6,24.9,12,40,.9,2.6.8,6.1,2.2,8.7,1.6,2.9,6.5,2.3,8.8,5.3,3,3.8,5.2,15.2,7,20,6.2,16.5,17,38.5,18.5,55.5.3,3.6-2.7,7.7,2.2,7.3,7.6-.6,18.6-5.1,26.8-5.8,1.3-1.9-5.4-12.6-6.3-15.2-2.3-6.6-3.3-14.6-5.7-21.3-4.2-12.1-10.8-24.5-15-37-5-14.7-7.1-26.5-14.2-40.8-.9-1.8-3-12.1-6.7-9.6h0s0,0,0,0ZM460.6,636.5c-7.8,1-20.8,5.8-28.7,8.4-1.7.5-3.8.2-5.3.7-6.4,2.3-1.6,10.5-1,14.5,1.8,11.5,2.5,24.2,5.7,35.3,3.9,13.2,11.5,26.9,15,40,4.9,18.2,3.1,34.4,5.5,51.5.6,4,3.9,9.2,4.4,13.6l2,1c9.5-4.2,21.5-5.8,30.7-10.3,1.1-.5,2.1-.9,2.5-2.2-3.9-11.6-7.6-23.5-10.2-35.5-1.6-7.5-1.6-18-3.9-25.1-1.5-4.6-7-7.7-7.5-10.5-1.1-6.6,7.2-10.8,7-17.9,0-2.7-1.7-5.5-1.9-8.2-1.9-19.1-3.9-26.4-8.7-44.3-1.2-4.4,1.1-11.8-5.7-10.9h0s0,0,0,0ZM370.7,829.2c2-5.1-1.9-7.2-2.9-10.3-12.7-38-8-79-19.2-117.8-.5-1.6-2.2-2.8-2.5-4.5s.8-3.5.1-5c-1.5-3.6-16.2-6.2-20.3-7.8-5.8-2.2-13.1-6.3-19-9-4.5-2.1-17.7-22.8-23-18.3-.4,4.5-3.7,8.6-4.9,12.6-2.1,7.3-8.8,35.2-8.6,41.4.2,9,2.9,18.8,3.4,29.4.2,3.8,2.2,4.2.8,8.7-2.5,7.8-7.2,9.1-14.8,7.8-1.3,6.5-3.6,13.5-11.6,13-3.3-.2-6.5-3.4-10.4-1.9-.9,3.4-2.6,7.3-1,10.8,8-1.7,15.5,10.2,16.6,16.9.7,4.2-.1,8.5.2,12.8,1.6,17.9,2.7,35.5,2,53.5l39-11.7c-1-11.4-.8-22.9-3.9-34l-3.3-34.7c-4.7-2.5-8.6-5.3-10.4-10.6-1.5-4.5,1.3-6.7,5.2-8.9,2.4-1.3,6.5-1.9,7.1-2.4,1.9-1.3,1.4-24.4,1.2-28.3-.3-9.4-3.2-23.3-2.5-32s10.6-6.2,16.6-6c.2,5.4,5.2,10.6,5.9,15.1,2.1,13.7-1,32.1,1.1,44.9.6,3.6,5,5.4,6.3,9.7,2.4,8.4.7,13.6.6,21.3,0,13.5-.9,28.9,0,42.1,1.1,16,.7,17.5,15.2,14.2,12.4-2.8,24.3-7.8,36.6-10.8h0ZM64.8,917.3c4.6-1.2,9.3-1.5,14-2.5,5.5-1.2,16.6-3.6,21.4-5.5,5.7-2.2,2.3-10.5,2.5-16.6,1-31,1.4-60.9,1.1-92,0-2.7-1.2-5.1-1.1-8,.1-6.2,4.8-9.9,5.2-14,.3-3.8-1.8-6.5-2.1-10-2.2-25.5,14.4-54.6,25.2-76.8,4.4-9,9.3-17.9,11.8-27.7l-7,6.5c-4.9,5.7-21.5,30.8-22.8,37.2-1.6,7.9,3.4,8.6-2.7,16.3-4,4.9-6.8,4.9-11,8-7,5.1-3.5,8-15.1,10.9-2.8.7-12.8,1.1-13.3,2.8-.7,2.2.9,5.3.9,7.8.5,15.2-1.7,30-2.1,45s2.2,31.3,1.1,46.1c-1.4,20.5-5.8,41.6-6.1,62,0,3.5.9,7,0,10.5h0ZM187.9,880.3c3.6,2,5.7-1.6,8.7-2.6,4.8-1.6,14.9-2.6,17.8-6.2s.4-5.7.4-9.5c-.3-16.3,2.9-36.7,1.1-52.1-.5-4.5-5-7.6-4.7-11.8.3-4.8,5.5-9.5,7.2-13.7,3.7-9.1-.2-24,.5-34.5.8-12.3.9-12.5-.9-25.1-.5-3.8,1.2-8.5-1.6-11.4-1.6,0-7.9,16.1-8.3,18.7-1.5,9.4,1.2,19.6-2.8,29.2-3.5,8.4-7.5,7.7-13.3,11.7-4.2,2.9-5.4,8.1-12.1,6.4l1,15.6c5.9.2,3.1,1.3,4.5,4.4,2,4.5,3.1,4.9,3.5,10.5,1.4,18.9.6,42.9,0,62.1,0,2.8-1.5,5.5-1,8.4h0ZM168.2,762c-2.2-4.3-7.8-15-8.4-19.2s1.4-7.2,1.9-11c.1-1.1.9-3.6-.9-3.4l-21.2,38.3c-7.1,7-9.1,17.7-17.7,23.2.2,31.3,1.2,63.2.4,94.7-.2,6.5-6.3,19.6,4.6,17.4,7.2-1.4,22-6.9,29.3-9.7,10.2-4,5.1-4.8,4.5-12.5-1.1-13.4,2.1-47.4-4.6-57.4-2.4-3.5-6.7-4.5-6.5-9.5.4-9.1,10.6-14.7,11.6-19.5.4-2.1-.7-5.3-.4-8.4.6-6.2,2.9-16.5,10.9-15.6.6-3.2-3-6-3.6-7.4h0ZM496.1,563.1c3-15.2,10.1-34.8,14.5-50.5,1.2-4.2,5.2-9.9,3.9-14.2-1.3-4.4-7.3-7.3-11.3-4.7-.6.4-1.2,2.3-2.2,3.2-11.3,10.1-9.4,15-13.3,28.7-5.3,18.2-13,38-12.8,57.2.1,12,0,17.5,13.5,17.6,12.8,0,7.1-8.5,11-14,2-2.7,6.5-3.9,9-6,8.7-7.3,15.4-17.4,21-27,.8-1.3-.2-2.5,2.5-2,.4,11.9-2.1,23.7-3,35.5-.8,10.3-3,28.3.5,37.5.6,1.6,4.8,8,6,9,2.3,1.9,4.4,1.4,6.5,2.5,5.3,2.9,5.1,8.1,14.5,7.5,12.5-.9,7.8-14.3,8.7-23.4s4.9-16.8,6.6-25.4c2.4-12.4,4.9-30.2,5.3-42.7,0-2.3.4-10.2-.5-11.6-4.6-1.8-7.5-4.7-12.6-3.5-9.2,2.1-6.2,17.2-7,24-1,8.2-3.5,17-4,25,0,1.3-.8,2.3-.9,3.6-3.5,3.4-1-8.7-.9-9.5.4-12.7-.2-25.2-1.2-37.8-7.4-7-15.8-11.7-19.8,1.3-13.8-8.3-19.4,9.9-26,18.2-1.9,2.4-5.6,5.7-8,7.8,0-2.1-.2-4.2.2-6.3h0s0,0,0,0ZM200.4,462.8c-13.2-1-25.8,13.9-31.1,24.5-3.9,7.9-11.2,31.1-12.4,39.6-.4,2.7-.2,5.8,1.2,8.2,2.2,2.2,15.9,1.4,17.8-1.2s4.1-20.4,5.4-25.6c2.2-8.3,6.1-20.6,13.6-25.5,3.1-2,9.1-3.1,11.6-5.9,5-5.5.1-13.7-6.2-14.2h0ZM356.3,404.3c5.6-.9,16.5-6.7,22.3-7.7,8.1-1.4,23,.6,30-3,8.3-4.3,3.4-11.2,6.2-14.8,2.1-2.7,14.5-4.6,18.6-7.4,1-.7,8.6-7.5,9.5-8.5,2.4-2.7,8-13.6,11-15s6.5,1,10.3.3c8.8-1.7,24-21.4,27.6-29.4,1.9-4.1,1.9-8.3,3.9-12.1,1.7-3.2,5.8-6.5,8-10,7.1-10.9,12.2-23.4,10.1-36.8-1.2-8-11.3-8.6-17.3-4.4-7.2,5.2-3.8,10-4.8,17.3-2.1,15.2-10.6,37.1-23.4,46.6-3.4,2.5-7.5,3.6-11,6-12.6,8.7-28.6,30.5-41.2,36.8-2.2,1.1-22.6,9.8-23.9,9.9-2.1.2-4.7-1.1-7.8-.7-2.5.4-4.7,2.6-6.2,2.8s-5-3.5-7.9-3.8c-6.4-.7-14.3,2.7-17.4,8.5-5.9,10.9-4.1,6.4-13,13.1-4.2,3.2-5.9,8.1-1.8,12.2,1.3,1.3,15.8.5,18.2.2h0ZM231.3,293.4c-7.5.8-32.9,14.6-39.4,19.6-17.7,13.6-19.5,33.6-26.6,52.4-7.1,19-17.6,37-17.5,58.5,0,11.1,13.1,9.4,17.3.3,1.7-3.7,1-8.6,2-12,3.9-13.2,9.2-30.1,14-43,3.2-8.8,12.3-30.6,17.3-37.7,3.3-4.6,24.6-17.1,31.1-20.9,6.1-3.6,12-2.3,13.2-11.9.2-1.7-1.6-1.8-2.5-2.7-3.3-3.2-3.5-3.2-8.9-2.6h0ZM264.5,307.4c-.3,0-4.1,4.3-4.3,4.9-.5,1.9,1.2,5.3-.3,7.9,1.9.5,3.2,1.7,4.4,3.1,7.6,8.6,14.8,21,19.7,31.3.7,1.5.7,4.5.8,4.7.2.2,3.2,0,4.9.6,5.2,2.1,8.5,12.7,16,9,3.9-1.9,1.4-10.7-.1-13.9-1.7-3.7-4.5-4.9-6.3-7.7-8.2-12.7-6.8-20-19.2-31.3-3.8-3.5-9.5-10-15.6-8.6h0ZM360.5,321.5c-.6.2-10.2,7.8-10.6,8.4-2.5,4,1.2,10.1,5.4,10.5,4.4.4,6-2.5,9.3-2.9,3.8-.5,9.7,1.9,14.3-.6l.8-12.4c-6.1-2.2-12.6-4.9-19.2-2.9h0ZM319.9,382.7c1,3.4,26.6,7.6,23.9-3.3-7.3.2-23.3-7.9-23.9,3.3Z"/>
    </g>
  </g>
</svg>