<?xml version="1.0" encoding="UTF-8"?>
<svg id="Layer_2" data-name="Layer 2" xmlns="http://www.w3.org/2000/svg" viewBox="0 0 948.14 947.89">
  <style>
    .dark-gray{
      fill:#444545;
    }
  </style>
  <g id="Layer_1-2" data-name="Layer 1" class="dark-gray">
    <path d="M278.83,539.35c2.04,2.72,6.24,3.55,8.6,5.4,37.17,29.21,45.07,64.34,70.08,101.36,1.98,2.93,9.14,9.88,9.86,12.19,2.57,8.2-4.2,12.31-6.74,19.37-4.3,11.95,1.84,12.41,5.68,22.7,10.96,29.42,8.72,66.87,14.75,97.25.75,3.81,6.95,22.96,10.4,23.6,5.82-1.5,11.43-3.75,17.12-5.61,2.55-.83,6.42.32,8.11-2.87-2.01-6.81-6.19-15.37-7.64-22.13-2.55-11.92-1.77-31.23-5.51-42.48-1.92-5.78-7.73-4-5.24-13.82s11.53-9.43,14.41-13.58c.76-1.09,4.12-9.53,4.07-10.79-.12-3.39-3.81-8.76-4.73-12.34-1.32-5.12-1.42-13.07-2.51-18.49-1.02-5.05-3.29-20.19-5.49-23.51-.75-1.13-1.04-2.22-2.73-2.27l-24.54.6c-1.9-3.87-7.13-14.97-3.72-18.36,5.38-3.81,10.03-1.05,15.25-1.15,9.46-.18,25.91-5.06,35.55-7.54,22.04-5.66,51.63-17.43,73.57-19.45,5.01-.46,22.67,2.19,20.74,9.7-2.25,8.75-7.24,6.18-12.78,7.29-7.25,1.45-14.65,4.7-22.47,5.02-1.62,1.93,4.76,19.09,5.59,22.69,1.45,6.29,3.2,14.66,4.02,20.98.72,5.51-.27,24.62,4.31,27.69,5.54,3.72,12.51-.99,16.45,8.55,4.87,11.79,7.99,38.47,10.79,52.21.62,3.05,1.94,6.14,2.62,9.38.5,2.38-1.07,7.28,2.52,7.35,4.9.09,13.74-5.31,19.48-5.06,2.22-12.92-5.04-24.08-8.41-35.89-4.12-14.47-10.37-35.66-13.05-49.95-1.35-7.22-1.04-14.9-2.73-22.27-3.08-13.45-13.05-26.68-8.04-40.83,5.18-1.7,9.55-1.32,11.84,4.04,2.73,13.19,8.61,25.53,11.26,38.74,4.07,20.23,5.82,34.96,12.78,55.22,5.11,14.88,14.39,30.22,14.46,46.04l44.96-11.04c1.09-1.23-4.52-19-5.49-21.94-8.23-24.94-24.17-48.49-20.7-75.3l-12.58-29.47c-.16-1.68.14-3.19,1.52-4.31,13.52-11,23.66,21.03,26.24,29.63l1.37.31c3.97-2.89,12.15-2.52,16.06.24,3.47,2.45,4.41,16.98,5.89,22.11,1.35,4.67,4.2,10.26,6.23,14.77l15.58,54.42c2.39,3.64,9.87-1.8,13.82-1.51,1.47-8.55-3.78-16.3-5.62-23.68-.9-3.58-.76-7.93-1.56-11.44-4.28-18.75-7.86-37.72-15.68-55.38-.75-2.84,1.36-6.18,3.31-8.08,1.06-1.04,3.13.2,3.72-2.84.46-2.37-4.51-17.39-5.55-17.47-3.07,1.89-7.62,5.45-11.24,5.76-1.2.1-8.45-.85-9.29-1.26-1.5-.74-8.08-13.87-8.73-16.27-1.96-25.75-10.27-55.39-11.3-80.72-.25-6.23,4.08-10.17,10.34-9.35,8.76,1.15,9.95,28.01,11.73,34.82,1.82-.38,1.86-1.97,2.02-3.46.66-5.88-2.21-17.21,6.54-18.49,16.22-2.38,7.55,18.32,11.99,26.89,7.14,13.77,7.92,28.17,11.72,43.28,1.89,7.5,4.95,21.57,7.98,28.02,1.97,4.19,7.6,5.52,9.93,10.07,1.95,3.8,2.09,8.92,3.79,13.21,8.92,22.51,11.89,36.66,16.75,60.25.9,4.38.61,9.82,1.71,14.29,1.21,1.94,5.61-.1,7.53-.57,3.19-.78,17.5-4.6,18.37-6.74,2.25-5.49-6.23-21.25-8.4-27.2-5.6-15.39-13.03-35.78-14.85-52.14-1.25-11.29,5.04-12.45,4.97-19.89-.05-5.61-3.47-11.12-4.58-16.52l-1.79-.84c-8.34.47-13.15,16.85-22.72,7.37l-25.9-75.86c-1.28-2.05-6.56-1.11-9.06-3.19s-6.12-13.17-3.82-15.24c14.42-6.5,26.22,2.48,30.84,16.22,4.96,14.74,10.17,29.64,14.45,44.55.27.95,1.22,4.04,2.49,3.99l-1-19.49c.62-6.29-6.5-20.28-3.07-25.08,1.61-2.25,6.9-1.77,6.07-3.91-.17-.44-5.92-5.94-6.71-6.55-1.02-.79-3.25-.74-4.8-1.95-4.51-3.51-11.19-12.39-6.51-17.54.61-.66,6.15-4.18,6.7-4.27,2.96-.51,11.35,4.51,13.81,6.81,6.57,6.14,15.42,14.23,21.54,20.46,3.27,3.33,5.24,7.68,8.96,10.53.2-1.78.03-3.24-.55-4.94-10.28-30.17-31.69-37.4-53.94-54.06-16.09-12.05-43.18-43.86-62.99-46-7-.75-20.72,1.86-27.19,4.82-5.34,2.44-21.48,17.83-23.98,18-2.09.14-7.66-5.88-8.16-7.53-1.37-4.49,2.78-8.86,1.31-13.3-4.93,1.88-10.81,4.11-15.4,6.6-6.3,3.42-12.9,8.74-19.85,12.15-8.4,4.12-18.05,3.51-20.97,14.03-1.94,7-4.05,27.64-3.21,34.68.32,2.64,2.02,4.12,2.03,8.06.01,3.21-2,17.47-4.76,18.36-8.88,2.88-13.36-12-13.36-18.32,0-14.63,3.83-36.75,8.29-50.79,3.24-10.17,16.49-14.29,24.65-19.35,9.3-5.76,18.62-13.16,28.69-17.31,20.16-8.31,38.02-8.61,58.9-10.1,12.43-.89,27.76,3.18,38.74,9.24,2.58,1.42,18.9,15.75,20.74,13.75,1.77-9.88-3.74-18.35-4.05-28.47-.18-5.94,2.26-10.37,2.07-15.99-.74-21.38-10.89-37.14-17.04-56.01-1.45-4.44-1.32-8.72-2.44-12.56-4.39-14.98-23.86-38.38-36.62-47.38-3.21-2.26-9.36-4.57-11.44-6.56s-1.8-4.26-3.05-5.95c-4.8-6.52-30.09-18.7-38.32-23.69-1.66-1.01-3.01-3.44-4.15-3.94-2.79-1.22-7.28,2.98-9.34-3.64s4.7-10.47,7.81-14.87c3.5-4.95,9.33-13.02,11.75-18.25,8.92-19.33,1.19-44.33-.19-64.68-1.16-.83-9.29,6.76-10.52,7.97-2.84,2.78-9.66,12.23-10.93,13.07-2.44,1.61-5.75,1.04-8.08,2.92-2.93,16.23,8.37,53.17-21.24,38.82-2.28-13.44.99-27.13.78-40.79l-8.96,1.04c-.65,2.43.73,5.1.6,7.31-.33,5.9-4.61,9.57-6.54,14.26-4.27,10.4-8.87,27.51-17.69,35.31-4,3.54-16.44,6.21-18.47.11l-1.44-.03c-9.43,11.9-20.12,12.45-32.85,4.83-18.18-10.87-15.63-40.14-18.43-58.57-.61-3.98-.72-8.25-1.25-12.25-7.12-3.46-29.12,13.28-29.71,18.6-.19,1.75,1.01,4.38.8,6.9-2.07,24.56-16.19,45.38-25.64,67.47-1.94,2.37,3.92,9.74,5.58,10.5,6.03,2.76,15.95-.64,21.02,4.98,2.74,3.04,1.15,5.5,7.95,5.54,1.8-10.79,8.48-13.57,17.21-6.95,1.71,1.3,5.5,6.38,6.49,6.75,8.7,3.29,27.96-3.72,26.31,11.19,12.34-1.14,19.16,10.23,9.32,19.05l-31.04,7.73c-2.3-1.15-6.09.41-7.58.06-1.59-.38-2.4-3.34-5.13-2.91-3.59,9.93-11.53,7.02-18.84,9.11-.88.25-.85,1.68-1.98,2.25-7.24,3.61-12.18.76-19.2.66-8.03-.12-15.92.36-23.9.87-4.99-5.25-7.83-6.01-6.7-14.38,1.5-11.03,19.91-6.67,27.3-5.2,2.33.46,4.54,2.57,7.23,2.6,3.88.05,13.73-3.22,19.02-3.83,3.57-.41,13.9.26,15.8-.17,1.42-.32,8.17-7.15,14.42-8.61,1.85-.43,9.07.62,8.26-2.72-4.53-4.51-11.36.7-17.48-.53-2.5-.5-2.96-3.16-5.92-3-3.13.16-8.14,6.74-14.33,7.78-8.36,1.41-17.38,1.77-25.53,2.45-2.46.21-6.05,3.3-8.07,2.71-7.13-6.87-2.18-11.48,1.19-18.27-6.11-5.56-14.04-8.51-10.85-18.65-8.64.55-14.54,6.16-23.54,5.59-1.6-.23-5.94-6.24-7.94-7.6-1.13-.77-12.3-6.87-13.03-7-1.89-.33-1.27.22-1.72,1.27-.9,2.06-1.66,6.84-1.79,9.21-.61,11.38,10.13,29.4-9.96,28.53.62-7.17-3.63-14.22-4.92-20.58-3.75-18.5-4.77-38.21-8.33-56.67-1.54-8.01-5.53-14.47-5.82-23.29-.16-4.83,4.22-5.98,5.03-10.03.66-3.32-3.66-4.27-1.76-10.71,1.1-3.75,15.48-11.87,19.44-13.55,10.07-4.28,47.02-7.54,57.63-4.92,5.23,1.29,15.48,8.58,20.17,7.8l16.63-12.44c9.67-3.87,18.33-8.35,29.19-6.34,4.62.86,11.24,6.81,14.22,6.84,5.93.07,17.54-9.22,25.02-10.08,11.34-1.3,18.01,2.2,28.23,4.77,2.16.54,4.52-.15,6.57.43,3.14.89,5.6,6.99,7.44,9.54.5.7-.2,1.7,1.73,1.23,3.07-5.59,12.84-11.82,15.58-16.42.63-1.05,1.14-1.59,1-3-.23-2.29-12.23-15.1-14.26-18.85-3.77-6.96-4.22-14.96-3.8-22.7-1.78-1.73-7.18,6-8.98,7.52-7.78,6.54-11.17,5.1-18.76,8.24-2.81,1.16-5.57,5.86-8.32,7.68-3.63,2.4-8.14,3.12-12.45,3.55-10.08,1.02-20.03.93-29.94.97-13.36.06-26.45,3.21-36.53-7.96,1,5.41-12.72,11.95-16.74,12.77-4.29.88-9.36-.2-13.77.23-8.22.82-14.17,4.54-22.86-.15-8.16-4.4-10.26-12.59-9.63-21.34.67-9.32,6.03-15.98,7.94-25.07.46-1.25-.25-1.96-1.44-1.44-2.83,1.23-9.33,10.26-13,12.01-1.44,4.26.23,8.99-.73,13.27-.19.86-4.6,8.22-5.02,8.48-1.39.84-6.03.41-8.69,1.81-3.1,1.63-6.92,7.67-10.07,9.93,6.41,1.06,13-5.56,17.5-9.5,2.22,3.78,4.2.07,3.4,6.4-1.18,9.36-14.45,23.55-23.88,25.17-4.75.82-14.37-.75-17.48-4.62-.59-.73-4.45-8.75-4.46-9.43-.07-4.93,5.17-11.52,5.82-16.11s-.84-7.82-.95-11.88c-.56-21.84,23.19-32.05,38.19-42.94.74-.54,2.41-.41,2.7-.74.51-.58-.01-4.43.38-6.13,1.48-6.42,5.77-6.92,9.18-10.82,3.21-3.67,6.28-8.99,9.94-12.56,7.36-7.16,20.34-16.11,30.96-12.16,1.96.73,2.59,4.32,4.7,5.29,6.53,3,15.74-7.42,21.76-10.22,21.55-10,53.51-14.23,76.44-6.98,8.82,2.79,11.38,9.68,19.37,10.63,9.55,1.12,13.13-4.28,22.19-4.65,10.1-.41,31.34,4.65,39.16,11.29,2.93,2.48,5.73,9.6,6.63,13.37,4.73,19.91,5.13,40.87,3.42,61.56-.21,2.51-3.63,15.96-2.99,16.5,4.26-1.01,11.02,1.5,14.02,4.48,1.91,1.9,0,5.81,2.38,7.62,1.63,1.24,4.35.75,6.34,1.66,4.85,2.23,12.98,14.81,14.04,19.97,1.66,8.1,1.76,30.05,1.27,38.82-.72,12.82-3.26,24.76-8.65,36.35-2.16,4.64-5.75,7.36-8.19,11.63.06.75,8.75,6.52,10.27,7.51,10.66,6.99,18.08,12.48,28.06,19.94,5.59,4.18,13.76,8.1,18.49,12.51,6.37,5.93,27.21,32.15,30.37,39.63,6.7,15.86,9.64,32.28,14.32,48.68,2.38,8.34,7.42,15.8,8.29,24.71.44,4.49-.35,9.12.25,13.75,1.74,13.51,12.24,30.36,6.28,43.76-1.76,3.95-8.06,5.52-7.08,9.97,2.77,12.56,20.88,18.24,30.03,25.03,9.85,7.3,28.51,26.57,35.36,36.64,3.52,5.18,4.74,11.58,8.75,17.25,4.07,5.75,14.84,13.98,16.86,20.14,1.15,3.51,1,7.27,2.53,11.47,5.12,14.13,14.53,28.19,20.06,42.94,10.73,28.57,19.31,58.07,30.5,86.5,1,2.54,3.47,9.77,5.97,10.11,2.85.38,17.62-8.47,18.3-10.79.83-2.86-4.94-28.53-6.27-33.32-6.19-22.35-16.03-43.79-23.26-65.74-4.65-14.11-7.9-28.89-11.76-43.25l-1.01-.95c-3.52,1.7-15.46,3.78-18.8,2.77-4.58-1.38-8.93-11.31-3.99-14.59,2.67-1.77,14.47-5.11,18.52-6.47,5.51-1.85,12.73-4.55,17.94-6.06,11.39-3.3,26.42-4.72,37.07-8.93,4.93-1.95,4.15-8.76,12.17-7.72,2.38.31,3.8,2.14,7.05,2.04,8.06-.23,22.14-7.57,29.16-8.03,6.62-.44,11.31,1.53,15.38,6.47,15.1,18.29,26.76,56.22,32.72,79.28,4.6,17.81,5.02,37.06,11.52,54.48,3.5,9.39,13.55,21.4,6.76,31.24-3.04,4.41-20.54,13.26-26.29,15.71-2.52,1.08-5.44.8-7.99,2.01-3.18,1.51-4.29,5.4-5.75,6.25-3.38,1.96-15.79,7.38-20.02,8.98-6.58,2.49-17.27,3.79-22.69,6.3-2.47,1.14-4.38,5.44-5.98,6.23-2.2,1.08-4.79,1.01-6.83,1.98-3.32,1.57-7.12,4.62-10.68,5.38-4.76,1.02-10.54-10.74-15.09-11.22-1.47.87-2.45,2.29-3.98,3.08-3.89,2.01-14.62,8.44-17.65,9.35s-10.31,1.52-14.65,2.35c-27.55,5.27-74.99,16.92-99.66,29.14-6.22,3.08-7.69,1.78-14,3.2-15.56,3.49-32.93,11.26-48.47,14.53-8.58,1.81-20.17,1.65-28.55,3.45-40.52,8.71-80.08,22.44-118.72,36.28-21.12,7.56-42.65,12.45-64.02,18.98-20.65,6.32-40.88,14.32-61.92,20.08-5.06,1.38-21.1,2.8-24.11,6.89-1.36,1.85-.84,4.55-2.23,6.29-2.39,3.01-8.39,3.72-12.04,3.04-2.86-.53-2.53-2.54-3.9-3.08-5.68-2.23-8,.97-12.55,2.05-12.77,3.02-27.73,5.94-40.04,9.96-4.63,1.52-8.71,5.95-14.23,4.72-.98,4.78-1.74,11.91-7.72,13.32-10.61,2.5-11.92-7.04-16.49-6.58-1.34.14-8.61,2.67-10.76,3.35-2.27.71-4.48,2.81-6.72,3.28-3.04.63-5.93-.34-9.03.97-5.48,2.32-3.7,12.47-12.5,10.02-1.5-.42-2.65-2.28-4.35-2.5-6.08-.78-27.85,9.26-35.2,11.48-35.49,10.74-71.96,19.57-107.96,27.97-6.92,1.61-11.52,1.33-15.05-5.41-1.72-3.29-3.01-6.42-1.43-10.06,4.77-10.97,23.92-4.61,25.25-11.76-1.1-12.29,2.25-24.75,1.01-37.01-1.8-17.76-10.02-34.36,3.12-50.86,4.22-5.3,5.73-.86,6.74-12.26,1.5-16.86-.58-40.5-.92-57.83-.09-4.5.17-9.04.04-13.54-10.76-.08-21.05,9.08-30.92,2.39-3.1-.54-2.16,8-2.06,10.1,2.08,45.68-3.03,94.01,5.09,138.9,1.55,8.56,9.87,16.92-.52,22.64-7.23,3.98-9.33,5.01-14-2.12-4.95-7.56-6.17-17.6-7.49-26.52-4.52-30.48.24-59.96.95-90.86.43-18.56-3.21-37.91-2.05-57.12.24-4.01.64-11.49,4.76-13.17,7.74-3.17,8.02,4.78,11.73,4.76,8.91-6.3,19.3-5.99,29.1-9.93l44.41-1.09c-2.33-6.48.03-12.71.21-19.28,8.14-13.73,17.05-27.18,24.96-41.04,3.09-5.41,6.66-15.86,9.8-19.93,1.24-1.61,4.16-2.07,4.77-3.01,1.13-1.74,1.81-9.11,2.76-11.74,7.28-20.17,15.01-32.81,26.94-50.06,9.58-13.86,15.27-29.53,35.52-17.34-.72,8.18-7.86,12.57-11.92,18.18-12.86,17.79-28.25,41.89-35.08,62.69-1.1,3.35-2.27,7.68-2.89,11.13-.19,1.05-.06,2.35.9.87,7.87-11.35,20.99-6.96,19.81,6.78-10.83,16.73-18.7,34.93-27.08,52.96-4.41,9.49-11.91,19.8-11.7,30.79,3.96-2.72,5.15-8.61,7.47-13.02s8.63-17.61,11.62-20.38c6.64-6.14,10.9.24,17.89,1.4.26-17.96,10.99-31.54,19.2-46.31,2.46-4.42,9.52-21.37,11.89-23.14,2.83-2.12,10.58-.69,12.94,1.92,8.73,9.7-8.86,28.85-13.83,37.22s-8.61,15.96-11.09,25.91c-1.02,4.11-3.71,15.1-4.09,18.91-.95,9.32.64,17.12,6.49,24.47,5.06-5.03,1.09-12.15,1.5-18.46.55-8.57,16.85-44.05,22.37-51.65,6.29-8.65,8.97-3.75,13.21-6.79,1.56-1.11,3.01-5.82,4.77-7.74,5.44-5.94,13.83-3.96,14.68,4.14s-5.33,22.75-6.01,32.03c-.74,9.97,3.43,31.05,7.99,39.98,2.48,4.87,5.5,6.36,11,5.5l-4.94-39.35c2.91-18.41,6.96-36.49,11.42-54.66.96-3.92,3.67-8.17,4.27-11.73.55-3.29-.61-8.61,1.14-10.86.66-.85,6.46-3.29,7.65-3.37,1.28-.08,12.5,1.06,13.52,1.39,2.4.79,2.43,2.86,3.64,3.61,13.88,8.68,25.35,25.49,42.03,29.72,2.91.74,6.26.02,9.25.24.88-.82-3.76-8.66-4.57-9.92-6.81-10.49-18.74-25.1-24.3-35.7-1.66-3.17-1.97-8.15-3.95-12.05-1.83-3.6-4.94-5.69-6.56-8.44-9.78-16.61-14.98-25.87-29.54-38.43-3.64-3.14-23.97-6.14-29.33-5.22-6,1.03-10.74,6-18.26,5.85-8.41-.16-13.98-12.63-8.05-19.17,3.21-3.54,11.08-3.25,15.61-4.39,23.86-6.02,21.52-3.64,43.97.47-1.46-1.95-1.72-4.74-3.46-7.04-2.49-3.3-5.97-4.04-8.56-6.43-1.1-1.01-7.92-8.07-8.23-8.77-2.03-4.55,1.01-8.28,3.92-11.63,9.68-.08,16.68,4.89,23.35,11.36,3.84,3.72,11.34,11.46,8.05,17.06-.46.79-6,6.04-6.78,6.27-2.39.71-5.78-.36-8.28-.82ZM431.83,20.34c.18-4.02-2.56-1.84-4.23-2.25-5.89-1.43-10.42-2.47-16.76-1.74-.43,2.28.12,1.6,1.27,2.23,5.95,3.27,13.26,3.67,19.72,1.76ZM378.83,21.36c-2.03-.62-9.54,2-8.99,4.48,1.01,4.6,8.35-2.37,8.99-4.48ZM445.83,42.36c-4.46,1.51-15.98-3.63-15,2.99,5.12.94,14.6,5.3,15-2.99ZM306.83,54.34c3.55,1.97,18.82-7.64,18.98-9.49.25-2.87-6.56,1.26-7.34,1.64-3.76,1.88-9.13,4.65-11.64,7.85ZM381.57,45.61c-2.35-2.23-17.95-1.17-22.28-1.22-2.41-.03-4.65-1.14-6.97-1.14-7.02.03-13.9,5.83-17.93,11.16-1.22,1.62-8.57,14.56-8.54,15.44.03.78,1.49,1.76,2.98,1.01,2.71-1.37,7.03-5.92,10.1-7.9,1.97-1.26,4.5-1.63,6.8-3.2,3.53-2.41,9.66-9.23,12.84-10.16,8.12-2.39,13.44-1.08,20.96,2.55,2.03.98,2.91,3.36,5.29,3.2-2.76-2.6-.43-7.05-3.26-9.73ZM403.83,52.36c-3.56-.97-11.71-2.17-14.57-.08-.4.29-5.94,7.23-6.2,7.8-1.26,2.64-.73,5.22-1.53,7.47-2.19,6.09-5.29,11.82-7.69,17.8,1.8.38,2.41-.97,3.51-1.98,3.56-3.24,10.59-19.67,13.7-25.33.61-1.11.74-2.45.82-3.69.45-.52,12.8,3.39,11.96-1.99ZM373.84,104.34c5.81-.57,3.98-9.71,4.98-13.99-4.48,2.88-6.14,9-4.98,13.99ZM502.83,149.35c-1.42-.2-4.74,4.28-5.3,5.24-.9,1.53-2.04,2.78-1.68,4.75l6.94-.04c1.49-3.26-.37-6.5.05-9.95ZM442.83,151.36c-2.68.2-6.02-1.01-7.98,1.49,2.34,3.54,8.65,4.09,7.98-1.49ZM455.83,168.36c-2.92-2.26-9.91,9.97-8.99,10.99,5.48-2.57,7.95-4.92,8.99-10.99ZM320.84,178.35c.62.66,8.38-3.51,7.99-5.48-.89-4.49-9.6,2.3-7.99,5.48ZM271.83,174.36c-6.38,1.03-9.94,6.97-16.99,6.48.78,2.17,3.4,1.57,3.79,1.82.57.37.7,2.29,1.78,2.65,2.96,1.01,10.33-7.99,11.43-10.96ZM892.48,594.7c5.87,6.57,5.12,20.31,6.81,28.69,2.34,11.56,6.63,31.46,11.06,41.94,2.12,5.02,3.59,6.45,9.53,4.57,10.91-3.44-.29-20.36-2.2-26.9-5.11-17.41-5.02-36.64-10.14-54.86-4.88-17.41-11.61-39.12-19.95-55.05-1.9-3.63-5.58-9.73-10.11-9.45l-22.72,6.36c1.76,12.33,8.17,23.25,13.68,34.24,1.45,2.89,4.09,5.51,5.58,8.42,1.97,3.84,3.98,12.5,6.36,15.64,1.55,2.05,8.72,2.61,12.1,6.4ZM814.07,605.13c3.79,2.5,7.07-2.55,10.99-1.6,3.42.83,7.48,7.45,9.97,10.12,7.15,21.54,12,43.67,17.53,65.47.99,3.92.52,8.62,2.77,12.3,1.7,1.91,22.75-2.25,25.51-4.56,1.94-1.62.87-5.37.53-7.57-3.66-24.12-18.22-48.8-18.58-75.49-.04-3.26,1.78-5.38,1.87-7.91.33-10.22-14.92-31.55-19.69-42.18-1.39-3.1-5.29-15.98-6.05-16.95-.45-.58-1.11-1.04-1.81-1.25-1.97-.58-27.8,5.64-31.73,6.9-1.72.55-8.04,2.25-8.49,3.57l17.17,59.15ZM733.97,586.44c-.69.48-.47,3.61-3.4,3.66-5.83.11-12.64-2.15-17.23-5.76-9.28-7.28-8.38-22.63-17.49-30,2.31,8.44,6.33,16.51,8.5,24.99,3.94,15.42,6.61,24.91,11.98,40.02.94,2.64.81,6.13,2.21,8.71,1.58,2.91,6.5,2.33,8.8,5.28,2.97,3.81,5.25,15.22,7.03,19.97,6.19,16.53,17.01,38.47,18.55,55.51.33,3.62-2.69,7.67,2.16,7.3,7.63-.58,18.62-5.13,26.76-5.82,1.31-1.86-5.4-12.61-6.31-15.16-2.33-6.57-3.31-14.56-5.65-21.35-4.19-12.12-10.79-24.52-15.04-36.96-5.04-14.73-7.12-26.54-14.18-40.82-.87-1.76-3.01-12.13-6.67-9.6ZM460.6,636.53c-7.8,1.01-20.78,5.85-28.72,8.37-1.73.55-3.83.15-5.33.67-6.4,2.26-1.6,10.5-.97,14.53,1.81,11.51,2.48,24.15,5.74,35.26,3.85,13.15,11.48,26.89,15.04,39.96,4.94,18.15,3.06,34.39,5.54,51.46.58,4.01,3.93,9.21,4.42,13.57l2.02,1.05c9.54-4.2,21.48-5.82,30.71-10.34,1.06-.52,2.14-.89,2.46-2.2-3.89-11.58-7.62-23.52-10.23-35.47-1.65-7.55-1.64-18.01-3.93-25.07-1.48-4.56-7.05-7.67-7.53-10.53-1.11-6.6,7.22-10.83,7.05-17.9-.06-2.68-1.67-5.48-1.94-8.16-1.91-19.09-3.88-26.39-8.67-44.33-1.16-4.36,1.14-11.77-5.67-10.89ZM370.69,829.21c2.03-5.11-1.9-7.19-2.93-10.29-12.67-37.97-8.03-78.97-19.22-117.78-.45-1.57-2.17-2.79-2.55-4.55s.76-3.5.13-4.99c-1.52-3.6-16.25-6.19-20.29-7.76-5.8-2.25-13.06-6.29-18.96-9.04-4.52-2.11-17.7-22.84-22.95-18.35-.37,4.49-3.71,8.62-4.86,12.63-2.09,7.26-8.78,35.17-8.63,41.4.21,9.03,2.94,18.8,3.39,29.37.16,3.81,2.24,4.22.81,8.72-2.47,7.77-7.24,9.08-14.75,7.81-1.31,6.5-3.58,13.47-11.55,13.04-3.31-.18-6.54-3.39-10.38-1.94-.95,3.41-2.65,7.3-1,10.75,8.02-1.73,15.51,10.18,16.63,16.86.71,4.22-.14,8.53.25,12.75,1.64,17.88,2.69,35.48,2,53.51l39.02-11.67c-.98-11.41-.75-22.87-3.91-33.95l-3.28-34.72c-4.68-2.49-8.57-5.28-10.38-10.62-1.51-4.46,1.27-6.68,5.2-8.88,2.36-1.32,6.46-1.9,7.13-2.36,1.86-1.29,1.39-24.42,1.25-28.34-.32-9.38-3.19-23.28-2.54-31.99s10.59-6.17,16.57-6.04c.19,5.38,5.16,10.62,5.86,15.13,2.15,13.69-1,32.11,1.12,44.88.6,3.62,5.05,5.44,6.27,9.73,2.41,8.43.66,13.61.63,21.29-.05,13.46-.9,28.89,0,42.08,1.09,15.99.67,17.5,15.25,14.17,12.42-2.84,24.28-7.84,36.65-10.85ZM64.84,917.35c4.59-1.23,9.34-1.48,14-2.49,5.47-1.18,16.57-3.62,21.4-5.5,5.68-2.21,2.35-10.47,2.54-16.56.97-30.96,1.41-60.92,1.09-91.99-.03-2.67-1.18-5.11-1.13-7.95.12-6.2,4.81-9.94,5.17-14,.34-3.79-1.79-6.52-2.09-10-2.22-25.46,14.41-54.6,25.2-76.81,4.38-9.02,9.33-17.87,11.8-27.69l-6.96,6.52c-4.91,5.68-21.47,30.79-22.8,37.19-1.63,7.86,3.42,8.64-2.72,16.29-3.97,4.94-6.81,4.93-11.02,7.98-7.01,5.07-3.47,8-15.12,10.88-2.8.69-12.76,1.13-13.27,2.77-.67,2.16.86,5.32.94,7.82.5,15.19-1.72,29.95-2.11,45s2.15,31.3,1.1,46.07c-1.45,20.51-5.76,41.61-6.11,61.96-.06,3.52.9,6.96.09,10.51ZM187.9,880.28c3.64,2,5.73-1.6,8.74-2.63,4.81-1.63,14.85-2.6,17.77-6.22s.45-5.69.38-9.54c-.28-16.32,2.9-36.74,1.07-52.07-.53-4.45-4.96-7.64-4.73-11.82.26-4.81,5.53-9.51,7.2-13.66,3.68-9.11-.19-23.97.47-34.53.76-12.29.9-12.51-.86-25.07-.53-3.77,1.21-8.52-1.61-11.37-1.65.06-7.85,16.12-8.26,18.72-1.47,9.42,1.16,19.59-2.84,29.16-3.5,8.37-7.47,7.65-13.33,11.67-4.18,2.86-5.35,8.11-12.07,6.43l.97,15.57c5.85.15,3.15,1.35,4.5,4.44,1.97,4.5,3.09,4.92,3.49,10.45,1.36,18.86.63,42.92.09,62.09-.08,2.84-1.5,5.5-.97,8.39ZM168.22,761.98c-2.18-4.32-7.78-15.01-8.35-19.21s1.36-7.23,1.86-11.03c.14-1.06.85-3.64-.89-3.38l-21.18,38.33c-7.06,7.04-9.14,17.65-17.67,23.25.2,31.35,1.16,63.22.45,94.74-.15,6.55-6.33,19.62,4.64,17.44,7.22-1.43,21.96-6.9,29.28-9.73,10.21-3.95,5.08-4.85,4.46-12.53-1.08-13.44,2.08-47.44-4.57-57.44-2.35-3.54-6.72-4.5-6.51-9.54.38-9.13,10.65-14.66,11.63-19.51.43-2.11-.71-5.32-.44-8.39.55-6.25,2.86-16.45,10.9-15.64.62-3.21-2.96-6.05-3.62-7.36ZM496.07,563.09c3.03-15.25,10.13-34.78,14.46-50.54,1.16-4.24,5.21-9.85,3.9-14.22-1.31-4.36-7.31-7.29-11.31-4.69-.62.41-1.19,2.31-2.22,3.24-11.28,10.13-9.36,15.01-13.33,28.7-5.27,18.2-13.02,37.96-12.77,57.23.15,11.95-.05,17.5,13.52,17.61,12.78.1,7.07-8.53,11.05-14.04,1.96-2.71,6.5-3.94,8.98-6.02,8.68-7.3,15.38-17.36,21.01-27.03.76-1.31-.17-2.51,2.48-1.97.42,11.88-2.13,23.69-2.98,35.51-.75,10.34-3.04,28.3.5,37.48.62,1.6,4.78,8.05,5.96,9.04,2.29,1.91,4.44,1.44,6.45,2.55,5.35,2.92,5.14,8.13,14.55,7.45,12.45-.9,7.83-14.34,8.65-23.39s4.93-16.83,6.61-25.39c2.44-12.42,4.87-30.15,5.3-42.7.08-2.32.4-10.25-.5-11.58-4.59-1.81-7.46-4.65-12.56-3.48-9.21,2.1-6.25,17.2-7.04,23.98-.95,8.23-3.51,16.95-4.04,24.97-.08,1.26-.77,2.34-.92,3.57-3.54,3.42-.97-8.7-.94-9.46.37-12.66-.24-25.25-1.23-37.85-7.43-6.98-15.84-11.67-19.82,1.31-13.79-8.31-19.35,9.93-25.98,18.23-1.92,2.41-5.56,5.71-8,7.77-.05-2.09-.19-4.18.23-6.26ZM200.36,462.82c-13.21-1.04-25.8,13.89-31.07,24.49-3.91,7.86-11.18,31.09-12.41,39.61-.39,2.69-.22,5.83,1.18,8.2,2.2,2.2,15.93,1.38,17.81-1.21s4.08-20.44,5.44-25.56c2.2-8.26,6.05-20.57,13.55-25.45,3.09-2.01,9.14-3.09,11.65-5.85,4.97-5.46.15-13.73-6.16-14.23ZM356.27,404.29c5.61-.87,16.45-6.72,22.3-7.7,8.09-1.36,23.02.6,29.96-3.04,8.28-4.34,3.42-11.19,6.21-14.79,2.11-2.73,14.51-4.64,18.6-7.4,1.05-.71,8.65-7.51,9.51-8.49,2.38-2.71,8.04-13.57,10.98-15.04s6.51,1.04,10.26.32c8.75-1.67,24.02-21.38,27.62-29.43,1.85-4.12,1.85-8.33,3.92-12.08,1.74-3.16,5.8-6.53,8.03-9.97,7.08-10.92,12.18-23.42,10.12-36.76-1.24-8.02-11.34-8.62-17.27-4.39-7.24,5.16-3.76,10-4.75,17.25-2.08,15.18-10.64,37.13-23.42,46.58-3.36,2.49-7.54,3.62-11,6-12.6,8.67-28.6,30.49-41.22,36.78-2.23,1.11-22.61,9.8-23.9,9.93-2.12.21-4.71-1.11-7.81-.66-2.45.36-4.67,2.64-6.24,2.77s-4.95-3.47-7.93-3.8c-6.36-.71-14.26,2.69-17.38,8.47-5.91,10.94-4.09,6.39-12.95,13.08-4.21,3.18-5.93,8.09-1.8,12.21,1.33,1.33,15.77.53,18.17.16ZM231.32,293.35c-7.48.77-32.94,14.61-39.41,19.58-17.7,13.6-19.53,33.56-26.6,52.4-7.14,19.04-17.58,36.97-17.52,58.47.03,11.12,13.11,9.44,17.27.28,1.68-3.71,1-8.59,2-12,3.88-13.24,9.24-30.06,13.99-43.01,3.22-8.8,12.29-30.61,17.34-37.66,3.29-4.59,24.64-17.07,31.09-20.91,6.09-3.63,12-2.34,13.21-11.87.2-1.68-1.59-1.81-2.48-2.67-3.32-3.21-3.5-3.16-8.89-2.61ZM264.54,307.37c-.32.07-4.14,4.31-4.31,4.92-.51,1.87,1.22,5.33-.32,7.92,1.92.54,3.16,1.66,4.44,3.12,7.57,8.59,14.75,21.05,19.7,31.3.7,1.46.66,4.5.83,4.66.23.21,3.25-.07,4.9.6,5.22,2.13,8.49,12.7,16.05,8.96,3.88-1.91,1.38-10.67-.12-13.9-1.72-3.71-4.55-4.91-6.33-7.67-8.19-12.73-6.81-19.96-19.21-31.29-3.82-3.49-9.51-9.98-15.64-8.63ZM360.53,321.55c-.65.19-10.21,7.83-10.59,8.42-2.55,3.99,1.23,10.08,5.37,10.49,4.39.43,6.03-2.52,9.29-2.94,3.84-.49,9.66,1.92,14.28-.63l.82-12.4c-6.09-2.2-12.58-4.9-19.16-2.94ZM319.92,382.69c.98,3.41,26.65,7.62,23.92-3.34-7.27.25-23.34-7.93-23.92,3.34Z"/>
  </g>
</svg>