<?xml version="1.0" encoding="UTF-8"?>
<svg id="wavy-line" xmlns="http://www.w3.org/2000/svg" xmlns:xlink="http://www.w3.org/1999/xlink" version="1.1" viewBox="0 0 500 35">
  <defs>
    <style>
      .cls-1 {
        clip-path: url(#clippath);
      }

      .cls-2 {
        stroke-width: 0px;
      }

      .cls-2, .cls-3 {
        fill: none;
      }

      .cls-3 {
        stroke: #0F98EB;
        stroke-miterlimit: 10;
        stroke-width: 11px;
      }
    </style>
    <clipPath id="clippath">
      <rect class="cls-2" width="500" height="35"/>
    </clipPath>
  </defs>
  <g id="wavy-line-wrapper">
    <g class="cls-1">
      <path class="cls-3" d="M-199.9,4.7l12.5,12.5c6.9,6.9,18.1,6.9,25,0h0c6.9-6.9,18.1-6.9,25,0h0c6.9,6.9,18.1,6.9,25,0h0c6.9-6.9,18.1-6.9,25,0h0c6.9,6.9,18.1,6.9,25,0h0c6.9-6.9,18.1-6.9,25,0h0c6.9,6.9,18.1,6.9,25,0h0c6.9-6.9,18.1-6.9,25,0h0c6.9,6.9,18.1,6.9,25,0h0c6.9-6.9,18.1-6.9,25,0h0c6.9,6.9,18.1,6.9,25,0h0c6.9-6.9,18.1-6.9,25,0h0c6.9,6.9,18.1,6.9,25,0h0c6.9-6.9,18.1-6.9,25,0h0c6.9,6.9,18.1,6.9,25,0h0c6.9-6.9,18.1-6.9,25,0h0c6.9,6.9,18.1,6.9,25,0h0c6.9-6.9,18.1-6.9,25,0h0c6.9,6.9,18.1,6.9,25,0h0c6.9-6.9,18.1-6.9,25,0h0c6.9,6.9,18.1,6.9,25,0h0c6.9-6.9,18.1-6.9,25,0h0c6.9,6.9,18.1,6.9,25,0h0c6.9-6.9,18.1-6.9,25,0h0c6.9,6.9,18.1,6.9,25,0h0c6.9-6.9,18.1-6.9,25,0h0c6.9,6.9,18.1,6.9,25,0h0c6.9-6.9,18.1-6.9,25,0h0c6.9,6.9,18.1,6.9,25,0h0c6.9-6.9,18.1-6.9,25,0h0c6.9,6.9,18.1,6.9,25,0h0c6.9-6.9,18.1-6.9,25,0h0c6.9,6.9,18.1,6.9,25,0h0c6.9-6.9,18.1-6.9,25,0h0c6.9,6.9,18.1,6.9,25,0l12.5-12.5"/>
    </g>
  </g>
</svg>